<?xml version="1.0" encoding="UTF-8"?>
<!DOCTYPE svg PUBLIC "-//W3C//DTD SVG 1.1//EN" "http://www.w3.org/Graphics/SVG/1.1/DTD/svg11.dtd">
<!-- Creator: CorelDRAW X8 -->
<svg xmlns="http://www.w3.org/2000/svg" xml:space="preserve" version="1.1" style="shape-rendering:geometricPrecision; text-rendering:geometricPrecision; image-rendering:optimizeQuality; fill-rule:evenodd; clip-rule:evenodd"
viewBox="0 0 544 483"
 xmlns:xlink="http://www.w3.org/1999/xlink">
 <defs>
  <style type="text/css">
   <![CDATA[
    .str0 {stroke:#00AFEF;stroke-width:1.56887}
    .fil1 {fill:none}
    .fil0 {fill:#00AFEF;fill-rule:nonzero}
   ]]>
  </style>
 </defs>
 <g id="Camada_x0020_1">
  <metadata id="CorelCorpID_0Corel-Layer"/>
  <path class="fil0 str0" d="M181 256l-5 -9c-1,1 -2,2 -4,2 -2,1 -4,-3 -1,-4 6,-2 9,-6 10,-11 2,-10 -10,-22 -20,-17 -11,5 -15,14 -11,26 1,5 4,9 9,12 4,3 10,6 16,8 1,-3 4,-5 6,-7l0 0zm42 -80c-5,-9 -21,-4 -32,-8 -15,-6 -21,-27 -6,-38 -2,-2 -3,-4 -4,-6 -4,-7 6,-12 10,-5 1,2 2,5 4,7 5,-1 10,0 15,2 5,2 9,6 12,12 4,6 -12,13 -15,7 -3,-4 -6,-8 -11,-6 -6,3 -2,11 2,12 13,6 29,-5 41,16 6,10 4,21 -6,27 2,3 3,5 4,7 4,7 -6,12 -10,5 -1,-2 -2,-5 -4,-7 -13,3 -24,-3 -30,-14 -5,-9 10,-15 15,-8 3,5 7,9 14,5 3,-1 3,-4 1,-8l0 0zm4 -2c3,5 2,11 -3,14 -8,5 -15,0 -20,-7 -1,-3 -10,0 -7,4 5,10 15,15 27,11 1,0 1,0 2,1 2,3 3,6 5,9 1,3 4,1 3,-1 -2,-3 -3,-6 -5,-8 -1,-3 -1,-2 1,-3 9,-5 11,-14 6,-23 -11,-19 -26,-8 -39,-14 -8,-3 -12,-15 -2,-19 6,-3 11,1 15,6 1,2 10,0 8,-3 -3,-5 -6,-8 -10,-10 -4,-1 -9,-2 -14,-1 -1,1 -1,1 -2,-1 -2,-3 -3,-6 -5,-8 -1,-2 -3,-1 -3,1 2,3 3,5 5,8 1,2 1,2 -1,3 -14,8 -9,26 5,32 11,4 27,-3 34,9l0 0zm30 -68c-2,0 -2,2 0,2 2,0 3,0 5,-1 1,0 1,-2 -1,-2 -1,0 -3,0 -4,1zm-126 110c0,-1 -2,-2 -3,0 0,1 0,2 -1,3 0,2 2,2 3,1 0,-1 0,-3 1,-4l0 0zm-3 11c0,-2 -2,-2 -3,-1 0,2 0,3 -1,5 0,2 2,2 3,0 0,-1 0,-3 1,-4zm-3 12c1,-2 -2,-2 -2,-1 0,2 -1,3 -1,5 0,2 3,2 3,0 0,-1 0,-3 0,-4zm-2 -1l-1 5 1 -5zm1 12c0,-1 -2,-1 -3,0 0,2 0,3 0,5 0,2 2,2 3,0 0,-1 0,-3 0,-5zm-1 12c0,-1 -2,-1 -2,0 0,2 0,4 0,5 0,2 2,2 2,0 0,-1 0,-3 0,-5l0 0zm1 12c-1,-1 -3,-1 -3,0 0,2 0,4 1,5 0,2 2,2 2,0 0,-1 0,-3 0,-5l0 0zm1 12c0,-1 -3,-1 -3,1 1,1 1,3 1,4 0,2 3,2 2,0 0,-2 0,-3 0,-5l0 0zm2 12c0,-2 -3,-1 -2,1 0,1 0,3 1,4 0,2 2,1 2,0 0,-2 -1,-3 -1,-5zm3 12c-1,-2 -3,-1 -2,0 0,2 0,3 1,5 0,1 3,1 2,-1 0,-1 -1,-3 -1,-4l0 0zm4 11c-1,-2 -3,-1 -3,1 1,1 2,3 2,4 1,2 3,1 2,-1 0,-1 -1,-3 -1,-4l0 0zm4 11c0,-2 -2,0 -2,1 1,1 2,3 2,4 1,2 3,1 3,-1 -1,-1 -2,-3 -3,-4l0 0zm6 11c-1,-2 -3,-1 -2,1 1,1 1,3 2,4 1,1 3,0 2,-1 0,-2 -1,-3 -2,-4l0 0zm6 10c-1,-2 -3,0 -2,1 1,1 2,3 3,4 1,1 3,0 2,-1 -1,-2 -2,-3 -3,-4l0 0zm7 9c-1,-1 -3,1 -2,2 1,1 2,2 4,4 1,1 2,-1 1,-2 -1,-1 -2,-2 -3,-4l0 0zm8 9c-1,-1 -3,1 -2,2 1,1 3,2 4,4 1,1 3,-1 1,-2 -1,-1 -2,-2 -3,-4l0 0zm9 9c-2,-1 -3,1 -2,2 1,1 2,2 4,3 1,1 2,-1 1,-2 -1,-1 -2,-2 -3,-3zm9 8c-2,-1 -3,1 -2,2 1,1 3,2 4,3 1,1 3,-1 1,-2 -1,-1 -2,-2 -3,-3zm9 7c-1,-1 -2,1 -1,2 1,1 3,2 4,3 1,0 3,-2 1,-3 -1,0 -2,-1 -4,-2l0 0zm10 6c-1,-1 -2,2 -1,2 2,1 3,2 4,3 2,0 3,-2 2,-2 -2,-1 -3,-2 -5,-3l0 0zm11 6c-2,-1 -3,1 -1,2 1,1 3,1 4,2 2,1 3,-2 1,-2 -1,-1 -3,-2 -4,-2l0 0zm11 5c-2,-1 -2,1 -1,2 2,0 3,1 5,2 1,0 2,-2 0,-3 -1,0 -3,-1 -4,-1l0 0zm11 3c-1,0 -2,2 -1,3 2,0 4,1 5,1 2,1 2,-2 1,-2 -2,-1 -3,-1 -5,-2l0 0zm12 4c-2,-1 -2,2 -1,2 2,0 3,1 5,1 2,0 2,-2 0,-3 -1,0 -3,0 -4,0l0 0zm11 2c-1,-1 -1,2 0,2 2,0 3,1 5,1 2,0 2,-3 0,-3 -1,0 -3,0 -5,0l0 0zm12 1c-1,0 -1,2 0,2 2,0 3,1 5,1 2,0 2,-3 0,-3 -1,0 -3,0 -5,0l0 0zm12 0c-1,0 -1,3 0,3 2,0 4,0 5,0 2,0 2,-3 0,-3 -1,0 -3,0 -5,0zm12 0c-1,0 -1,2 0,2 2,0 4,0 5,0 2,-1 2,-3 0,-3 -2,0 -3,1 -5,1l0 0zm12 -2c-1,1 -1,3 1,3 1,-1 3,-1 4,-1 2,0 1,-3 0,-3 -2,1 -3,1 -5,1zm12 -2c-2,0 -1,3 0,2 2,0 4,0 5,-1 2,0 1,-3 0,-2 -2,0 -4,1 -5,1l0 0zm11 -3c-1,0 0,3 1,2 2,0 3,-1 5,-1 1,-1 0,-3 -1,-3 -2,1 -3,1 -5,2l0 0zm12 -4c-2,0 -1,3 1,2 1,-1 3,-1 4,-2 1,-1 0,-3 -1,-2 -1,0 -3,1 -4,2l0 0zm11 -5c-2,0 -1,3 1,2 1,-1 3,-2 4,-2 1,-1 0,-3 -1,-2 -2,0 -3,1 -4,2zm10 -6c-1,1 0,3 1,2 2,-1 3,-2 4,-2 2,-1 0,-3 -1,-3 -1,1 -3,2 -4,3l0 0zm10 -7c-1,1 0,3 1,2 2,0 3,-1 4,-2 2,-1 0,-3 -1,-2 -1,1 -3,2 -4,2zm10 -7c-2,1 0,3 1,2 1,-1 3,-2 4,-3 1,-1 -1,-3 -2,-2 -1,1 -2,2 -3,3zm8 -8c-1,1 1,3 2,2 1,-1 2,-2 4,-3 1,-2 -1,-3 -2,-2 -1,1 -2,2 -4,3zm9 -8c-1,1 1,2 2,1 1,-1 2,-2 3,-3 1,-2 -1,-3 -2,-2 -1,1 -2,2 -3,4zm7 -10c-1,2 1,3 2,2 1,-1 2,-3 3,-4 1,-1 -1,-3 -2,-1 -1,1 -2,2 -3,3l0 0zm7 -9c-1,1 2,2 2,1 1,-1 2,-3 3,-4 1,-1 -1,-3 -2,-1 -1,1 -2,2 -3,4l0 0zm7 -11c-1,2 1,3 2,2 0,-2 1,-3 2,-5 1,-1 -2,-2 -2,-1 -1,2 -2,3 -2,4l0 0zm5 -10c-1,1 1,2 2,1 1,-2 1,-3 2,-5 1,-1 -2,-2 -2,-1 -1,2 -1,3 -2,5zm4 -11c0,1 2,2 3,1 0,-2 1,-4 1,-5 1,-2 -1,-2 -2,-1 -1,2 -1,3 -2,5zm4 -12c0,2 2,2 2,1 1,-2 1,-3 2,-5 0,-1 -2,-2 -3,0 0,1 0,3 -1,4zm3 -11c0,1 2,2 2,0 1,-1 1,-3 1,-5 0,-1 -2,-2 -2,0 0,2 -1,3 -1,5l0 0zm2 -12c0,1 2,2 2,0 0,-1 1,-3 1,-5 0,-1 -3,-1 -3,0 0,2 0,3 0,5zm1 -12c0,2 2,2 2,0 0,-2 0,-3 0,-5 0,-1 -2,-1 -2,0 0,2 0,3 0,5l0 0zm0 -12c0,2 2,1 2,0 0,-2 0,-3 0,-5 0,-2 -2,-1 -2,0 0,2 0,3 0,5l0 0zm-1 -12c0,2 3,1 3,0 -1,-2 -1,-3 -1,-5 0,-2 -3,-1 -2,0 0,2 0,3 0,5zm-1 -12c0,2 2,1 2,0 0,-2 -1,-3 -1,-5 0,-2 -3,-1 -2,0 0,2 0,4 1,5zm-3 -12c0,2 3,1 2,0 0,-2 -1,-3 -1,-5 0,-1 -3,-1 -2,1 0,1 1,3 1,4zm-3 -11c0,1 2,1 2,-1 -1,-1 -1,-3 -2,-4 0,-2 -3,-1 -2,1 0,1 1,3 2,4l0 0zm-5 -11c1,1 3,0 2,-1 0,-2 -1,-3 -2,-5 0,-1 -2,0 -2,1 1,2 2,3 2,5l0 0zm-5 -11c1,1 3,0 2,-1 -1,-2 -1,-3 -2,-4 -1,-2 -3,-1 -2,1 1,1 1,3 2,4zm-6 -10c1,1 3,0 2,-2 -1,-1 -2,-2 -2,-4 -1,-1 -3,0 -2,2 0,1 1,2 2,4l0 0zm-7 -10c1,1 3,0 2,-2 -1,-1 -2,-2 -3,-4 -1,-1 -2,1 -1,2 0,1 1,2 2,4zm-7 -10c1,2 3,0 2,-1 -1,-1 -2,-3 -3,-4 -2,-1 -3,1 -2,2 1,1 2,2 3,3zm-8 -8c1,1 3,-1 2,-2 -2,-1 -3,-2 -4,-3 -1,-2 -3,0 -2,1 2,1 3,2 4,4zm-9 -9c1,2 3,0 2,-1 -2,-1 -3,-2 -4,-3 -1,-1 -3,0 -2,1 2,1 3,2 4,3zm-9 -7c1,1 2,-1 1,-2 -1,-1 -2,-2 -4,-3 -1,-1 -2,1 -1,2 1,1 2,2 4,3zm-10 -7c1,1 2,-1 1,-2 -1,-1 -3,-1 -4,-2 -1,-1 -3,1 -1,2 1,1 2,1 4,2l0 0zm-11 -6c2,1 3,-1 2,-2 -2,-1 -3,-1 -5,-2 -1,-1 -2,1 -1,2 2,1 3,2 4,2zm-10 -5c1,1 2,-1 1,-2 -2,-1 -3,-1 -5,-2 -1,0 -2,2 -1,2 2,1 3,2 5,2zm-11 -4c1,0 2,-2 0,-2 -1,-1 -3,-1 -4,-2 -2,0 -3,2 -1,2 2,1 3,1 5,2l0 0zm-12 -4c2,1 2,-2 1,-2 -2,0 -3,-1 -5,-1 -2,0 -2,2 -1,2 2,1 4,1 5,1zm-12 -2c2,0 2,-2 1,-3 -2,0 -3,0 -5,0 -2,-1 -2,2 0,2 1,0 3,1 4,1l0 0zm-11 -2c1,0 1,-2 0,-2 -2,0 -3,-1 -5,-1 -2,0 -2,3 0,3 1,0 3,0 5,0l0 0zm-12 -1c1,0 1,-2 0,-2 -2,0 -4,0 -5,0 -2,0 -2,2 0,2 1,0 3,0 5,0zm-12 0c1,0 1,-2 0,-2 -2,0 -4,0 -5,0 -2,0 -2,3 0,3 1,0 3,0 5,-1l0 0zm-23 -7c-3,1 -3,-3 -1,-4 11,-2 21,-2 31,-2 48,0 90,19 122,50 31,31 50,74 50,121 0,95 -77,172 -172,172 -95,0 -172,-77 -172,-172 0,-17 3,-35 9,-52 0,-3 4,-1 3,1 -5,17 -8,34 -8,51 0,93 76,168 168,168 93,0 168,-75 168,-168 0,-46 -19,-88 -49,-118 -31,-31 -73,-49 -119,-49 -10,0 -20,0 -30,2l0 0zm15 191c-1,0 -2,-2 -1,-3l23 -10c1,-1 2,1 1,2l-23 11zm106 46c-1,1 -3,-1 -1,-2 4,-3 7,-7 10,-12 1,-1 3,0 2,2 -3,4 -7,9 -11,12l0 0zm-51 -44c1,1 -1,3 -2,1 -2,-3 -4,-7 -6,-11l-55 27c-2,4 -2,10 -1,15 0,2 -3,2 -3,1 -1,-5 -1,-10 1,-14l-12 6c-6,3 -11,6 -16,6 -5,0 -9,-2 -12,-8 -1,0 -1,0 -1,1 -3,1 -4,-3 -2,-4 21,-8 4,-31 -8,-26 -2,1 -5,3 -7,5 -8,8 -5,21 3,28 10,8 23,15 38,20 16,6 35,10 55,12 6,0 13,1 19,0 5,0 10,-1 15,-3 3,-1 4,3 2,4 -3,1 -5,2 -8,2 16,6 24,20 36,26 3,1 1,4 -1,3 -15,-6 -24,-25 -44,-27 -6,0 -13,-1 -19,-1 -21,-3 -40,-6 -56,-12 -16,-5 -30,-12 -39,-21 -6,-5 -10,-13 -10,-21 -3,-2 -6,-4 -9,-7 -7,-7 -10,-19 -6,-28 -6,-2 -12,-4 -17,-8 -5,-4 -8,-8 -10,-14 -4,-12 -1,-22 9,-29l-30 -14c-23,-10 -12,-35 7,-30l-39 -68c-6,-10 2,-19 12,-23l93 -32c5,-2 11,-1 14,4l52 89c2,-10 15,-17 22,-7 9,13 17,25 28,35 17,16 37,37 53,59 10,14 18,28 23,42 9,10 16,15 26,22 2,2 0,5 -2,4 -7,-5 -14,-10 -20,-16 0,1 0,2 1,3 0,3 -4,4 -4,1 -5,-18 -15,-36 -27,-53 -16,-23 -36,-43 -53,-59 -11,-10 -19,-23 -28,-36 -7,-9 -19,4 -14,13l15 26c2,3 5,6 8,7 2,0 1,4 -1,3 0,0 -1,0 -1,0l44 74c3,5 1,12 -5,15l-14 7c2,4 4,8 6,11l0 0zm41 42c-2,1 -3,-1 -2,-2 8,-5 15,-14 20,-22 0,-2 3,-1 2,1 -5,9 -12,18 -20,23l0 0zm-173 -37c1,-4 3,-7 6,-9 2,-2 4,-4 6,-6 13,-12 -2,-31 -13,-26 -5,3 -9,7 -11,11 -4,8 -1,18 5,24 2,2 4,4 7,6l0 0zm18 -16c12,0 23,15 17,26l4 5c1,4 5,5 9,3 30,-15 60,-30 91,-45 3,-1 4,-6 2,-9l-64 -109 0 0 0 0 -57 -98c-2,-3 -6,-4 -10,-2l-93 32c-4,1 -4,6 -3,9l68 119c10,4 17,15 14,25l8 14c13,1 21,19 14,30l0 0zm15 29c-1,1 -2,2 -4,3 2,5 5,6 8,6 1,0 2,0 2,0 -1,-1 -3,-3 -4,-5l-2 -4 0 0zm-33 -58l-7 -10c0,1 -1,2 -3,3l6 9c1,-1 2,-2 4,-2l0 0zm-34 -41l-20 -35c0,0 -2,-1 -3,-1 -6,-2 -12,1 -15,5 -3,5 -1,13 10,18l28 13 0 0zm6 1c2,0 3,-1 5,0l-66 -117c-1,-2 -2,-4 -2,-6 -3,3 -4,8 -1,12l64 111 0 0zm-24 -125c-1,0 -1,0 -2,-1 0,0 0,-1 1,-1l4 -2c1,0 1,0 2,1 0,1 0,1 -1,1l-4 2zm14 -5c-1,0 -2,0 -2,-1 0,-1 0,-1 1,-2l22 -8c1,0 1,0 2,1 0,1 0,1 -1,2l-22 8z"/>
  <rect class="fil1" width="544" height="483"/>
 </g>
</svg>
