<?xml version="1.0" encoding="UTF-8"?>
<!DOCTYPE svg PUBLIC "-//W3C//DTD SVG 1.1//EN" "http://www.w3.org/Graphics/SVG/1.1/DTD/svg11.dtd">
<!-- Creator: CorelDRAW X8 -->
<svg xmlns="http://www.w3.org/2000/svg" xml:space="preserve" version="1.1" style="shape-rendering:geometricPrecision; text-rendering:geometricPrecision; image-rendering:optimizeQuality; fill-rule:evenodd; clip-rule:evenodd"
viewBox="0 0 2697 2394"
 xmlns:xlink="http://www.w3.org/1999/xlink">
 <defs>
  <style type="text/css">
   <![CDATA[
    .fil10 {fill:none}
    .fil9 {fill:#848688}
    .fil2 {fill:#373435}
    .fil1 {fill:#F7ADAF}
    .fil4 {fill:#F89E32}
    .fil8 {fill:#F48884}
    .fil5 {fill:#ED3237}
    .fil3 {fill:#80CFD7}
    .fil7 {fill:#00AFEF}
    .fil6 {fill:#00A859}
    .fil0 {fill:#4A4037}
   ]]>
  </style>
 </defs>
 <g id="Camada_x0020_1">
  <metadata id="CorelCorpID_0Corel-Layer"/>
  <g id="_2450225136032">
   <circle class="fil0" cx="1493" cy="830" r="25"/>
   <circle class="fil1" cx="1712" cy="536" r="25"/>
   <circle class="fil2" cx="1282" cy="522" r="25"/>
   <circle class="fil0" cx="870" cy="792" r="25"/>
   <circle class="fil3" cx="1355" cy="788" r="25"/>
   <circle class="fil4" cx="1657" cy="192" r="25"/>
   <circle class="fil5" cx="1084" cy="435" r="25"/>
   <path class="fil5" d="M1427 691c5,13 19,20 32,15 57,-22 115,-28 137,-78 16,-35 1,-75 -34,-90 -14,-7 -29,-9 -45,-4 -5,-13 -15,-24 -32,-31 -35,-16 -75,0 -90,34 -18,39 -1,77 16,117 6,11 11,24 16,37zm14 -134c4,-9 14,-13 23,-9 6,3 10,5 11,25 1,21 25,32 41,19 8,-7 14,-10 18,-10 2,0 5,0 8,2 9,4 13,14 9,23 -10,22 -42,29 -86,44 -3,-7 -5,-12 -8,-18 -16,-36 -25,-58 -16,-76z"/>
   <path class="fil6" d="M1487 412c5,13 20,20 33,15 41,-16 85,-20 103,-60 13,-29 0,-62 -28,-75 -10,-4 -21,-6 -32,-4 -5,-8 -13,-16 -24,-21 -29,-13 -62,0 -75,28 -14,32 -1,61 12,90 4,9 8,18 11,27zm23 -96c1,-3 5,-5 8,-3 2,0 2,1 2,1 0,0 1,2 2,11 1,20 25,31 41,18 6,-5 9,-6 9,-6 0,0 1,0 2,1 3,2 5,5 3,8 -5,12 -24,17 -52,26 -1,-2 -2,-5 -3,-7 -11,-24 -17,-39 -12,-49z"/>
   <path class="fil4" d="M1240 811c14,1 26,-9 27,-23 4,-54 21,-102 -11,-140 -23,-27 -63,-30 -89,-7 -12,10 -18,22 -20,33 -14,1 -26,6 -37,15 -26,23 -29,62 -7,89 33,38 83,29 137,33zm-97 -83c3,-4 5,-4 6,-4 3,0 8,2 14,5 20,8 40,-9 35,-30 -4,-15 -2,-17 2,-20 5,-5 13,-4 17,1 11,13 9,32 4,66 0,4 -1,9 -1,14 -38,-1 -66,0 -79,-15 -4,-5 -3,-13 2,-17z"/>
   <path class="fil5" d="M1775 803l44 44c10,10 26,10 36,0 9,-10 9,-26 0,-35l-27 -27 27 -26c9,-10 9,-26 0,-35l-27 -27 27 -26c9,-10 9,-25 0,-35 -10,-10 -26,-10 -36,0l-44 44c-10,10 -10,25 0,35l26 26 -26 27c-10,9 -10,25 0,35z"/>
   <path class="fil7" d="M990 880l38 8 -17 17c-14,14 -8,37 11,42l67 17c14,3 27,-5 31,-19 3,-13 -5,-27 -19,-30l-23 -6 18 -19c15,-14 7,-38 -12,-42l-84 -17c-14,-3 -27,6 -30,20 -2,13 6,26 20,29z"/>
   <path class="fil8" d="M847 488c-9,19 -9,36 -4,50 -14,6 -26,16 -35,35 -16,37 0,79 36,95 55,25 106,-12 167,-35 13,-5 19,-19 15,-32 -23,-61 -30,-124 -84,-149 -37,-16 -79,0 -95,36zm123 107c-48,21 -79,39 -105,28 -11,-5 -16,-18 -11,-29 3,-7 6,-12 29,-13 21,-1 32,-25 19,-41 -15,-19 -13,-24 -10,-31 5,-11 18,-16 29,-11 21,10 29,34 42,76 3,7 5,14 7,21z"/>
   <path class="fil3" d="M1587 957c42,0 75,-33 75,-75 0,-42 -33,-75 -75,-75 -41,0 -75,33 -75,75 0,42 34,75 75,75zm0 -100c14,0 25,11 25,25 0,14 -11,25 -25,25 -14,0 -25,-11 -25,-25 0,-14 11,-25 25,-25z"/>
   <path class="fil9" d="M1240 446c42,0 76,-34 76,-76 0,-41 -34,-75 -76,-75 -41,0 -75,34 -75,75 0,42 34,76 75,76zm0 -101c14,0 25,12 25,25 0,14 -11,25 -25,25 -14,0 -25,-11 -25,-25 0,-13 11,-25 25,-25z"/>
   <rect class="fil0" x="1689" y="1418" width="42.5787" height="340.871"/>
   <rect class="fil0" x="1689" y="1801" width="42.5787" height="42.6089"/>
   <path class="fil0" d="M1966 1418l-149 0 0 -43 42 0c12,0 22,-9 22,-21l0 -85c0,-12 -10,-22 -22,-22l-42 0 0 -106c0,0 0,0 0,0 0,-9 -6,-17 -15,-20l-128 -43c-2,-1 -4,-1 -6,-1 0,0 0,0 0,0l-171 0 0 -128 -298 0 0 128 -170 0c0,0 0,0 0,0 -2,0 -5,0 -7,1l-127 43c-9,3 -15,11 -15,20 0,0 0,0 0,0l0 106 -43 0c-11,0 -21,10 -21,22l0 85c0,12 10,21 21,21l43 0 0 43 -149 0c-12,0 -21,9 -21,21l0 128c0,12 9,21 21,21l149 0 0 524c0,0 0,0 0,0 0,5 2,10 5,14l86 94c4,5 9,7 15,7l724 0c6,0 12,-2 16,-7l85 -94c4,-4 6,-9 6,-14 0,0 0,0 0,0l0 -524 149 0c12,0 21,-9 21,-21l0 -128c0,-12 -9,-21 -21,-21l0 0zm-1086 128l-128 0 0 -85 128 0 0 85zm362 -554l42 0 0 42 43 0 0 -42 43 0 0 42 42 0 0 -42 43 0 0 85 -213 0 0 -85zm-319 213l234 0 0 -43 -234 0 0 -6 109 -36 632 0 110 36 0 91 -851 0 0 -42zm851 895l-170 0 0 42 135 0 -38 43 -705 0 -39 -43 434 0 0 -42 -468 0 0 -725 851 0 0 725zm-915 -767l0 -43 979 0 0 43 -979 0zm1085 213l-127 0 0 -85 127 0 0 85z"/>
   <rect class="fil0" x="1370" y="1162" width="42.5787" height="42.6089"/>
   <rect class="fil0" x="1455" y="1162" width="170.315" height="42.6089"/>
   <polygon class="fil0" points="1093,2014 1008,2014 1008,1908 965,1908 965,2057 1093,2057 "/>
  </g>
  <rect class="fil10" width="2697" height="2394"/>
 </g>
</svg>
