<?xml version="1.0" encoding="UTF-8"?>
<!DOCTYPE svg PUBLIC "-//W3C//DTD SVG 1.1//EN" "http://www.w3.org/Graphics/SVG/1.1/DTD/svg11.dtd">
<!-- Creator: CorelDRAW X8 -->
<svg xmlns="http://www.w3.org/2000/svg" xml:space="preserve" class="icon" version="1.1" style="shape-rendering:geometricPrecision; text-rendering:geometricPrecision; image-rendering:optimizeQuality; fill-rule:evenodd; clip-rule:evenodd"
viewBox="0 0 657 330"
 xmlns:xlink="http://www.w3.org/1999/xlink">
 <defs>
  <style type="text/css">
   <![CDATA[
    .str0 {stroke:#4A4037;stroke-width:11.901}
    .fil2 {fill:none}
    .fil0 {fill:#F48884;fill-rule:nonzero}
    .fil1 {fill:#4A4037;fill-rule:nonzero}
   ]]>
  </style>
 </defs>
 <g id="Camada_x0020_1">
  <metadata id="CorelCorpID_0Corel-Layer"/>
  <g id="_1974910182000">
   <path class="fil0" d="M162 111c-3,1 -5,1 -7,2 -1,3 -3,8 -4,16 -1,6 -1,9 -2,11 -1,13 -3,22 -3,25 -1,8 -1,13 -1,13 0,7 -1,15 -2,22 0,0 0,1 0,1 0,1 0,5 -1,12 0,4 3,6 7,6 0,0 0,0 0,0l0 0c0,0 2,-1 5,-1 2,0 3,-3 3,-10 0,-3 1,-10 2,-20 3,1 6,2 8,2 2,14 4,20 7,20 0,0 1,0 2,0l2 0c1,0 2,0 3,-1 3,0 4,-1 5,-2 1,-2 2,-5 2,-10l0 0 -3 -12c-1,-9 -2,-15 -2,-17 0,-1 -1,-7 -4,-17 0,-10 -2,-17 -4,-20 -1,-5 -2,-7 -3,-8 -2,-8 -6,-12 -10,-12l0 0zm1 39c0,5 1,9 1,11 1,10 2,16 2,18l0 0 -2 0c-1,0 -3,0 -4,0l-1 0c0,-1 1,-5 2,-9 0,-9 1,-15 2,-20l0 0zm36 -35c-6,0 -9,2 -10,5 0,13 0,21 0,25 0,5 1,10 2,16l-1 9c0,1 0,4 2,10 0,1 -1,3 -1,6 1,4 1,6 1,6 0,9 1,15 4,19 4,4 7,6 10,6l10 0c2,0 5,0 8,-1 6,-1 8,-4 8,-7 0,-1 0,-2 0,-2 0,-1 -3,-2 -7,-2 -5,0 -7,0 -7,-2l0 -5c0,-5 -1,-7 -1,-8l0 0c0,-1 1,-2 1,-4 0,0 0,-2 0,-7 0,-1 0,-2 0,-2l0 -1c0,-1 0,-2 -1,-4 0,-1 0,-2 0,-4l-2 -11 0 -2c1,-2 1,-4 1,-4 -1,-9 -3,-17 -5,-23 0,-5 -1,-8 -2,-9 0,-2 -4,-3 -10,-4zm63 -2c0,0 0,0 0,0l-2 0c-2,0 -3,0 -3,0l-18 2c-3,1 -5,2 -5,3 0,2 1,4 2,8 0,0 0,0 0,0l0 1c0,1 -1,3 -1,5 1,0 1,2 1,5 0,3 0,8 0,15 0,3 0,5 1,7 0,2 0,3 0,4 0,9 0,15 0,18 0,2 0,4 0,5 0,2 0,2 1,2 0,10 1,16 1,16 0,4 0,7 1,8 6,4 11,6 16,6 2,0 5,-1 6,-1 10,-3 14,-6 14,-8 0,-1 0,-2 0,-3 0,-1 -5,-1 -13,-2 -2,0 -3,-2 -3,-6 0,-2 0,-7 1,-14 0,-1 -1,-3 -2,-6 0,-1 0,-2 0,-2 0,-2 0,-3 0,-6 1,-1 1,-3 1,-4l0 -6c0,-3 -1,-7 -2,-12l0 0 1 0c8,-2 11,-4 11,-7l0 -1c0,-1 -1,-2 -3,-2 -4,0 -7,0 -9,0 -1,0 -1,-1 -1,-2l0 -1 0 -2c-2,-5 -3,-8 -4,-10l0 0 5 0 1 0c0,0 1,0 1,0l0 0c3,-1 6,-2 9,-3 2,0 3,-2 3,-5 0,-2 -3,-2 -8,-2l-2 0c0,0 0,0 0,0l0 0zm23 1c-4,1 -7,2 -7,4 0,8 0,22 0,42 0,1 0,1 0,1 0,9 1,17 2,24 1,16 2,26 3,28 0,2 2,3 6,3 9,-1 13,-2 13,-4l0 -4c0,-3 0,-8 -1,-13 0,0 0,0 0,-1l0 0 1 2c5,11 8,17 8,19 0,2 2,3 7,4 1,0 1,0 2,-1 5,-2 7,-4 7,-6l0 0c0,-1 0,-2 -1,-3 -1,-5 -2,-8 -2,-8 -2,-1 -3,-5 -5,-11 -2,-5 -4,-8 -4,-9 -1,-4 -4,-8 -9,-12 1,-1 1,-2 2,-2 4,-5 6,-10 6,-14l0 -1c1,-2 1,-4 1,-5l0 -1c0,-4 0,-5 0,-5 0,-4 -1,-9 -3,-13 -2,-4 -4,-8 -8,-11 -2,-2 -8,-3 -18,-3zm9 10c5,3 8,10 8,20l0 4c0,4 -1,7 -4,11l-1 0 -1 -11 0 -6c0,-1 -1,-3 -1,-6 0,0 0,-1 0,-2 0,-6 -1,-9 -1,-10l0 0zm59 -15c-3,0 -6,1 -9,1 -5,2 -9,4 -12,7 -2,4 -4,10 -6,20 0,4 -1,12 -1,23 0,1 0,1 0,1 -1,2 -1,3 -1,5 0,1 1,2 1,3l0 1c0,1 0,3 0,5 0,3 0,4 0,4 1,5 1,8 2,10 2,12 6,20 10,24 4,3 7,5 10,5 3,0 7,-1 11,-3 3,-1 5,-3 8,-6 1,-1 3,-6 4,-13 0,-5 -1,-9 -1,-10 1,-3 1,-6 1,-7 1,-4 2,-7 2,-8l0 0c-1,-7 -2,-10 -3,-10 -1,-2 -3,-3 -6,-3l-3 0c-7,0 -10,2 -10,4l0 1 0 1c1,0 3,1 6,2 0,2 0,4 -1,8 1,3 1,6 1,10l0 1c0,6 0,13 -2,19l0 0c-1,-2 -2,-4 -3,-6l0 -1c0,-1 0,-2 0,-3 -2,-4 -2,-7 -2,-10 -2,-4 -2,-8 -2,-13 0,-1 0,-2 0,-3 -1,-3 -1,-5 -1,-5l0 -2c0,-1 0,-1 -1,-2l0 -1c0,-2 0,-7 -2,-17 0,-1 0,-3 0,-4l0 -2c-1,-5 -1,-9 -1,-11 0,0 1,-1 2,-2 0,6 1,12 2,19 2,4 5,6 10,6 3,-1 5,-1 7,-1 1,0 2,-3 3,-7l0 -5c0,-1 0,-2 0,-5 0,-2 0,-5 0,-8 0,-1 0,-2 0,-2l-1 -4c-2,-4 -6,-6 -12,-6zm27 8c-3,1 -5,3 -5,4l0 2c0,7 0,13 -1,19 0,7 0,11 0,13 0,0 0,1 0,3 0,2 1,7 1,15 0,6 -1,10 -1,13 0,0 1,2 1,6l0 11c0,4 0,8 1,10 0,2 3,3 8,3 5,0 7,0 8,-1 3,0 4,-1 4,-2l0 -1c0,-1 0,-3 0,-6 0,-2 0,-4 0,-5 0,-1 0,-2 -1,-4 0,-2 0,-4 0,-6l0 -1c-1,-8 -1,-12 -1,-14l0 -1c0,-5 0,-9 0,-10 0,-2 0,-5 0,-8l0 -5 0 -2c0,-1 0,-2 0,-3 0,-1 0,-4 0,-8 0,-2 0,-4 0,-5 0,-3 -1,-6 -2,-9l0 -2c0,-1 0,-2 0,-3 -2,-2 -5,-3 -10,-3l-2 0zm39 -6c-3,1 -5,1 -6,2 -2,3 -4,8 -5,16 -1,6 -1,9 -1,11 -2,13 -3,22 -4,25 0,8 -1,13 -1,13 0,7 -1,15 -2,22 1,0 1,1 1,1 0,1 -1,5 -1,12 0,4 2,6 6,6 0,0 0,0 0,0l0 0c1,0 2,-1 5,-1 2,0 3,-3 3,-10 0,-3 1,-10 2,-20 4,1 7,2 9,2 1,14 3,20 6,20 0,0 1,0 2,0l3 0c0,0 1,0 3,-1 2,0 3,-1 4,-2 1,-2 2,-5 2,-10l0 0 -3 -12c-1,-9 -2,-15 -2,-17 0,-1 -1,-7 -4,-17 0,-10 -1,-17 -4,-20 -1,-5 -2,-7 -3,-8 -2,-8 -5,-12 -10,-12l0 0zm1 39c1,5 1,9 1,11 2,10 2,16 2,18l0 0 -2 0c-1,0 -3,0 -4,0l0 0c0,-1 0,-5 1,-9 0,-9 1,-15 2,-20l0 0zm51 -35c-6,1 -10,2 -11,3 0,1 -1,3 -2,5 -4,3 -5,7 -5,11 0,7 1,12 2,15 3,8 6,13 8,15 1,2 1,4 2,6 1,2 2,7 3,15l0 10c0,2 -2,4 -5,8 -1,0 -2,-3 -4,-8 0,-5 -2,-7 -4,-7l-2 0c-3,0 -6,2 -7,5l0 2c0,5 2,11 6,16 4,4 8,5 11,5l1 0c3,0 6,-1 8,-3l2 0c1,0 1,0 2,-1 1,-1 3,-2 5,-3 1,-1 2,-3 3,-5 2,-2 3,-5 3,-8 1,-2 1,-4 1,-6l2 -7 0 -1 -1 -5c-2,-10 -4,-16 -7,-20 -8,-9 -12,-15 -12,-20 0,-6 3,-10 7,-14 2,-1 3,-3 3,-4l0 0c0,-3 -3,-4 -9,-4zm28 -7c-2,1 -3,2 -3,2 0,2 0,3 0,4l0 2c0,1 0,4 0,7 0,0 0,2 0,5 0,1 0,4 -1,8 0,1 0,2 1,3 -1,2 -1,2 -1,3l0 4c0,6 -1,11 -1,14l1 5c0,3 0,9 0,16l0 2c1,3 3,5 6,5 2,0 6,0 9,-1 2,0 3,-3 3,-7l0 -2c-1,-10 -2,-15 -3,-15 1,-1 2,-3 2,-6 1,-2 2,-4 2,-6l0 -5 0 -2c0,0 0,0 0,-1 0,-2 0,-4 0,-5l0 -3c0,-1 0,-3 0,-5 0,-1 0,-3 0,-5l-1 -2c1,-3 1,-5 1,-6l0 0c0,-1 0,-2 -1,-4 -1,-3 -4,-5 -9,-5l-5 0zm7 85c-2,0 -6,1 -12,3 -1,0 -1,3 -3,10 0,1 0,2 1,3 0,3 2,4 8,5l1 0c7,-1 11,-3 11,-5 1,-2 2,-3 2,-4 0,0 0,-1 0,-2 0,0 0,-2 1,-4 0,-1 0,-1 -1,-1 0,-3 -2,-5 -8,-5z"/>
   <path class="fil1" d="M176 91l-20 0 0 -19 18 0 0 -3 -18 0 0 -16 19 0 0 -3 -22 0 0 44 23 0 0 -3zm30 0l-19 0 0 -41 -4 0 0 44 23 0 0 -3zm29 0l-19 0 0 -19 17 0 0 -3 -17 0 0 -16 18 0 0 -3 -22 0 0 44 23 0 0 -3zm47 -41l-8 23c-3,6 -5,12 -6,17l0 0c-1,-5 -3,-11 -5,-17l-7 -23 -4 0 14 44 4 0 16 -44 -4 0zm8 44l4 0 0 -44 -4 0 0 44zm40 -44l-9 23c-2,6 -4,12 -5,17l0 0c-1,-5 -3,-11 -5,-17l-8 -23 -4 0 15 44 4 0 15 -44 -3 0zm31 41l-19 0 0 -19 17 0 0 -3 -17 0 0 -16 18 0 0 -3 -22 0 0 44 23 0 0 -3zm50 -1c-2,1 -6,2 -9,2 -12,0 -18,-8 -18,-20 0,-12 7,-20 18,-20 4,0 7,1 9,2l1 -3c-1,-1 -4,-2 -10,-2 -14,0 -22,10 -22,23 0,16 10,23 21,23 5,0 9,-1 11,-2l-1 -3zm25 -41c-11,0 -19,9 -19,23 0,14 8,23 19,23 10,0 19,-8 19,-23 0,-14 -8,-23 -19,-23zm0 3c11,0 15,11 15,20 0,10 -5,20 -15,20 -10,0 -16,-10 -16,-20 0,-10 5,-20 16,-20zm65 -2l-4 0 -9 25c-2,5 -4,10 -5,14l0 0c-2,-4 -3,-9 -5,-15l-9 -24 -4 0 -3 44 3 0 1 -20c1,-7 1,-15 1,-20l1 0c1,5 3,10 5,17l8 23 3 0 9 -23c2,-7 4,-12 5,-17l1 0c0,5 0,13 0,19l2 21 3 0 -3 -44z"/>
   <path class="fil2 str0" d="M112 246c40,9 177,38 243,34 49,-2 157,-23 190,-36"/>
  </g>
  <rect class="fil2" width="657" height="330"/>
 </g>
</svg>
