<?xml version="1.0" encoding="UTF-8"?>
<!DOCTYPE svg PUBLIC "-//W3C//DTD SVG 1.1//EN" "http://www.w3.org/Graphics/SVG/1.1/DTD/svg11.dtd">
<!-- Creator: CorelDRAW X8 -->
<svg xmlns="http://www.w3.org/2000/svg" xml:space="preserve" width="93.7794mm" height="15.6302mm" version="1.1" style="shape-rendering:geometricPrecision; text-rendering:geometricPrecision; image-rendering:optimizeQuality; fill-rule:evenodd; clip-rule:evenodd"
viewBox="0 0 8770 1462"
 xmlns:xlink="http://www.w3.org/1999/xlink">
 <defs>
  <style type="text/css">
   <![CDATA[
    .fil0 {fill:#4A4037;fill-rule:nonzero}
   ]]>
  </style>
 </defs>
 <g id="Camada_x0020_1">
  <metadata id="CorelCorpID_0Corel-Layer"/>
  <g id="_3054151920080">
   <g>
    <path class="fil0" d="M164 237c-50,4 -81,11 -95,20 -39,33 -58,61 -58,83 0,7 3,17 8,32 -3,28 -5,58 -5,91l0 50c-7,76 -11,122 -11,138 4,101 6,189 6,262 -3,45 -3,69 -3,70 2,4 3,7 3,9 -3,8 -3,15 -3,24l0 26c0,22 1,40 5,56 -2,17 -2,32 -2,44 0,10 1,31 5,62 0,14 -5,61 -14,138 4,32 10,54 19,67 13,16 49,24 107,24l24 0c36,-29 55,-55 55,-79l-8 -26c11,-12 16,-29 16,-53l-2 0c-2,-50 -3,-79 -3,-86l3 -6c-2,0 -3,-1 -3,-2l0 -3c0,-9 -3,-37 -9,-86l0 -8c0,-9 29,-20 84,-33 103,-85 153,-197 153,-335l0 -38c0,-20 -2,-52 -7,-94 0,-7 3,-29 10,-68l0 -15c-13,-37 -19,-70 -19,-100 -10,-37 -24,-60 -41,-70 -14,-22 -26,-33 -33,-33 0,-28 -61,-48 -182,-61zm52 229c8,8 12,12 13,12 22,16 38,70 49,161 -2,24 -3,37 -3,39 4,48 6,76 6,85 0,95 -22,160 -65,197l0 -3 8 -41 -2 -26c5,-24 7,-43 7,-57l0 -6c0,-24 -1,-50 -5,-76 2,-54 3,-91 3,-112 0,-24 -2,-41 -5,-53l2 -11c0,-33 -2,-70 -8,-109zm328 -245c-53,10 -80,27 -80,52 0,87 -2,252 -6,493 0,10 1,15 3,15 -1,98 6,192 20,280 9,194 20,303 34,330 9,24 32,37 68,37 107,-12 160,-27 160,-46l0 -50c0,-39 -5,-89 -15,-151 0,-1 0,-7 3,-18l3 0 9 31c64,124 96,199 96,228 0,16 28,28 86,37 2,0 10,-1 25,-4 49,-28 73,-53 73,-73l0 -4c0,-6 0,-16 -3,-27 -22,-63 -34,-97 -34,-105 -15,-12 -31,-55 -49,-129 -33,-61 -49,-94 -49,-99 -15,-51 -53,-98 -114,-141 13,-17 22,-25 28,-25 48,-62 72,-118 72,-166l-3 -22c10,-22 15,-39 15,-49l0 -18c0,-41 -2,-62 -6,-62 0,-47 -10,-99 -31,-154 -19,-45 -51,-88 -95,-126 -19,-23 -90,-34 -210,-34zm108 114c59,36 90,116 90,240l0 43c0,47 -16,92 -50,135l-3 0 -19 -129 0 -74c0,-14 -5,-38 -15,-71 0,-1 1,-7 3,-18 -2,-72 -5,-113 -9,-126l3 0zm430 -84c-37,18 -55,34 -55,49l0 31c1,77 -5,150 -18,219 4,83 6,134 6,150 0,10 0,23 -3,40 6,29 10,89 13,182 -4,68 -7,119 -7,151 0,2 3,25 7,71l0 129c0,50 6,92 18,123 0,25 30,37 89,37 54,-3 84,-7 89,-12 35,0 55,-12 59,-34l0 -3c0,-18 -3,-42 -9,-71 2,-30 3,-51 3,-62 0,-15 -4,-30 -12,-46 2,-28 3,-53 3,-74l0 -6c-10,-94 -16,-152 -16,-172l3 -12c-2,-63 -3,-103 -3,-121 0,-20 1,-51 3,-92l-6 -52 6 -31c0,-9 -1,-22 -3,-40 0,-9 1,-40 3,-93 0,-18 -1,-39 -3,-61 0,-32 -7,-64 -22,-95l0 -34c0,-6 -2,-15 -6,-28 -16,-29 -51,-43 -107,-43l-32 0zm781 -40c-28,17 -43,29 -43,37 0,20 2,73 6,160 -1,43 -3,65 -6,65 -5,146 -11,238 -19,277l0 83c0,20 1,46 3,80l-12 74 -3 0 -4 -15 0 -22c0,-22 -8,-48 -24,-77 -11,-80 -23,-120 -34,-120 0,-6 1,-13 3,-21 -10,-35 -16,-53 -18,-53 -20,-46 -32,-86 -37,-120 -50,-73 -74,-119 -74,-138 -47,-83 -104,-124 -172,-124 -9,0 -23,4 -40,10 -37,21 -56,39 -56,55l0 10c19,32 28,50 28,55l0 22c-15,37 -21,109 -21,218 0,29 -4,49 -10,62 -10,111 -19,193 -28,243 4,49 7,80 7,92 -3,53 -3,83 -3,90l9 77c-3,25 -3,39 -3,40l3 21c21,58 55,86 104,86l43 0c26,-14 47,-21 65,-21 21,-15 31,-41 31,-77l0 -3c0,-16 -1,-38 -3,-65l6 -18c-2,-35 -3,-61 -3,-81l0 -83 3 0c22,80 50,150 83,210 0,25 18,68 52,126 9,18 39,28 89,28l4 0 6 3c30,-4 51,-10 61,-19 15,4 27,6 37,6l3 0c15,0 21,-2 21,-6 30,0 52,-22 65,-68 0,-13 -1,-23 -3,-30 2,-18 3,-34 3,-46l0 -84c0,-18 2,-36 6,-52l-9 -49c0,-22 1,-55 3,-99 0,-5 -1,-20 -3,-46 4,-36 6,-74 6,-114l0 -3c0,-57 -5,-112 -15,-163 0,-31 1,-56 3,-77 -2,-24 -3,-55 -3,-92l0 -7c-13,-64 -19,-104 -19,-120l0 -49c-9,-45 -27,-68 -55,-68l-34 0 1 0zm400 -36c0,1 -11,4 -34,9 -37,0 -79,17 -126,50 -14,44 -26,75 -34,92l-31 194c0,36 -9,146 -27,330 2,44 5,75 9,95 -2,8 -3,16 -3,25l0 9c10,113 19,192 28,237 53,150 123,225 212,225 38,0 76,-12 114,-37 55,-15 83,-36 83,-64 19,-30 28,-59 28,-87 21,-75 31,-130 31,-166 0,-19 -18,-28 -53,-28l-27 0c-13,0 -29,6 -46,19 -10,30 -17,51 -22,61 -28,60 -43,110 -43,148 -17,0 -41,-76 -71,-228 2,-30 3,-51 3,-61 -10,-66 -15,-138 -15,-216l0 -59c0,-10 -4,-53 -10,-129l0 -6c0,-18 1,-36 4,-56 -4,-29 -10,-63 -19,-101 7,-95 18,-142 34,-142l3 0c8,0 21,4 37,12 6,27 13,50 22,71 -10,58 -16,97 -16,117l0 117c0,15 7,30 22,47 0,16 31,27 95,30 25,-5 46,-13 62,-24 10,0 15,-37 15,-111l0 -49c0,-56 -9,-106 -28,-151 -24,-22 -44,-49 -58,-80 0,-20 -21,-46 -62,-77 -23,-3 -48,-7 -77,-16zm344 76c-37,18 -56,34 -56,49l0 31c1,77 -5,150 -17,219 4,83 6,134 6,150 0,10 -1,23 -3,40 6,29 10,89 12,182 -4,68 -6,119 -6,151 0,2 2,25 6,71l0 129c0,50 6,92 19,123 0,25 30,37 89,37 53,-3 83,-7 89,-12 35,0 54,-12 58,-34l0 -3c1,-18 -2,-42 -9,-71 3,-30 3,-51 3,-62 0,-15 -3,-30 -12,-46 2,-28 3,-53 3,-74l0 -6c-10,-94 -15,-152 -15,-172l3 -12c-3,-63 -4,-103 -4,-121 0,-20 1,-51 4,-92l-7 -52 7 -31c0,-9 -1,-22 -4,-40 0,-9 1,-40 4,-93 0,-18 -1,-39 -4,-61 0,-32 -6,-64 -21,-95l0 -34c0,-6 -3,-15 -6,-28 -17,-29 -52,-43 -108,-43l-31 0zm391 -14c-50,4 -82,11 -96,20 -38,33 -58,61 -58,83 0,7 3,17 9,32 -4,28 -6,58 -6,91l0 50c-6,76 -10,122 -10,138 4,101 5,189 5,262 -2,45 -3,69 -3,70 2,4 3,7 3,9 -2,8 -3,15 -3,24l0 26c0,22 2,40 5,56 -1,17 -2,32 -2,44 0,10 2,31 5,62 0,14 -4,61 -13,138 4,32 10,54 19,67 13,16 48,24 106,24l25 0c36,-29 54,-55 54,-79l-7 -26c10,-12 16,-29 16,-53l-2 0c-3,-50 -4,-79 -4,-86l4 -6c-3,0 -4,-1 -4,-2l0 -3c0,-9 -3,-37 -8,-86l0 -8c0,-9 28,-20 84,-33 102,-85 153,-197 153,-335l0 -38c0,-20 -3,-52 -8,-94 0,-7 4,-29 11,-68l0 -15c-13,-37 -19,-70 -19,-100 -10,-37 -24,-60 -41,-70 -15,-22 -26,-33 -33,-33 0,-28 -61,-48 -182,-61zm52 229c7,8 12,12 13,12 22,16 38,70 48,161 -1,24 -2,37 -2,39 4,48 5,76 5,85 0,95 -21,160 -64,197l0 -3 7 -41 -2 -26c5,-24 8,-43 8,-57l0 -6c0,-24 -2,-50 -6,-76 3,-54 3,-91 3,-112 0,-24 -1,-41 -5,-53l2 -11c0,-33 -2,-70 -7,-109zm486 -277c-38,6 -64,13 -78,21 -21,32 -39,95 -55,187 -7,70 -13,112 -17,126 -20,161 -35,260 -44,295 -4,105 -8,158 -12,158 0,90 -6,178 -17,263 2,4 3,7 3,9 0,14 -4,63 -12,147 0,44 25,67 75,67 0,-3 1,-3 4,-3l0 3c3,-3 22,-5 57,-9 24,0 36,-39 36,-117 0,-43 7,-121 20,-234 44,12 79,18 104,20 17,160 41,240 73,240 5,0 14,-2 29,-6l26 3c10,0 23,-6 38,-17 25,-3 44,-10 55,-24 11,-16 18,-54 18,-116l0 -4 -32 -140c-16,-104 -24,-170 -24,-196 0,-15 -16,-82 -49,-202 0,-116 -16,-197 -49,-243 -11,-52 -21,-83 -30,-93 -30,-90 -69,-135 -118,-135l-1 0zm9 460c8,61 12,101 12,122 17,127 26,199 26,214l0 3 -23 0c-16,0 -33,2 -53,6l-3 0c0,-22 7,-60 21,-114 0,-102 5,-179 17,-231l3 0zm387 -398c-37,18 -56,34 -56,49l0 31c1,77 -5,150 -17,219 4,83 6,134 6,150 0,10 -1,23 -3,40 6,29 10,89 12,182 -4,68 -6,119 -6,151 0,2 2,25 6,71l0 129c0,50 6,92 19,123 0,25 30,37 89,37 53,-3 83,-7 89,-12 35,0 54,-12 58,-34l0 -3c1,-18 -2,-42 -8,-71 2,-30 2,-51 2,-62 0,-15 -3,-30 -12,-46 2,-28 3,-53 3,-74l0 -6c-10,-94 -15,-152 -15,-172l3 -12c-3,-63 -4,-103 -4,-121 0,-20 1,-51 4,-92l-7 -52 7 -31c0,-9 -1,-22 -4,-40 0,-9 1,-40 4,-93 0,-18 -1,-39 -4,-61 0,-32 -6,-64 -21,-95l0 -34c0,-6 -2,-15 -6,-28 -16,-29 -52,-43 -108,-43l-31 0zm516 -16c-73,11 -115,24 -126,37 -7,9 -18,25 -31,49 -41,39 -61,86 -61,139 5,82 16,142 30,178 39,90 70,147 96,172 4,30 11,54 21,71 14,26 24,86 30,179l0 120c0,18 -16,49 -49,95 -14,0 -30,-33 -49,-98 -7,-56 -24,-83 -52,-83l-22 0c-38,0 -66,22 -83,67l0 13c0,66 24,130 74,190 48,46 88,69 123,69l15 0c43,0 75,-13 99,-41l21 0c8,0 17,-4 28,-12 13,-14 32,-26 58,-34 5,-18 16,-38 34,-61 22,-21 34,-54 34,-99 10,-19 15,-42 15,-71l15 -80 0 -6 -9 -62c-21,-116 -46,-193 -76,-234 -94,-106 -141,-186 -141,-236 0,-72 27,-129 80,-173 25,-14 37,-28 37,-43l0 -6c0,-27 -37,-40 -111,-40zm684 -21c-12,4 -18,8 -18,10 -25,0 -41,19 -49,58 0,15 8,33 24,53l0 25c0,5 -3,36 -9,92l0 6c9,55 12,99 12,133l0 154c0,15 4,59 13,132l0 114c0,27 4,67 12,120 -6,87 -9,138 -9,154l0 4c0,51 14,90 43,117 63,37 97,55 101,55 52,0 106,-39 163,-117 29,-53 57,-90 86,-111 9,-39 20,-67 34,-83 19,-17 31,-48 37,-93 19,-74 28,-144 28,-209 -2,-68 -6,-107 -12,-117 -3,-78 -9,-117 -19,-117l3 -16 0 -21c0,-53 -34,-123 -101,-207 -39,-41 -76,-69 -111,-83 -93,-16 -145,-27 -154,-34 -17,-9 -42,-15 -74,-19zm179 256c33,93 49,147 49,160 10,0 20,66 31,198 -3,81 -4,126 -4,135 -14,44 -21,67 -21,71l-3 0c-15,-112 -21,-195 -21,-249l0 -34c-23,-154 -34,-234 -34,-244l0 -37 3 0zm431 -178c-53,18 -81,28 -83,28 -5,19 -14,40 -28,64l4 15c-7,1 -10,10 -10,25l0 3c6,53 13,86 19,99 -10,59 -16,93 -16,101l0 105c0,31 1,67 3,108 -4,28 -6,48 -6,58 3,46 6,68 10,68 0,80 19,159 58,237 58,84 129,126 212,126 56,0 103,-10 142,-31 51,-5 77,-11 77,-18 59,-27 89,-72 89,-132 18,-61 27,-104 27,-133l0 -21c0,-36 -5,-67 -15,-96l3 -37c0,-14 -3,-31 -10,-49 0,-12 1,-25 4,-43 -9,-24 -13,-39 -13,-46 0,-12 3,-29 6,-53l0 -3c-14,-40 -21,-65 -21,-76l0 -19c0,-26 3,-51 9,-74 -2,-14 -3,-25 -3,-34l0 -77 -3 -37c-13,-20 -32,-38 -55,-49 -43,0 -79,13 -108,40 -21,28 -30,82 -30,160 -18,74 -27,133 -27,179l0 33c0,26 4,57 12,93 0,13 -1,39 -3,80 16,59 25,98 25,117l0 9 -10 65c2,4 3,8 3,15l0 9 -9 13c-19,-2 -28,-5 -28,-9 -16,0 -31,-31 -43,-93 0,-68 -6,-140 -19,-215 3,-26 3,-40 3,-40 -8,-32 -16,-79 -24,-142 8,-56 12,-95 12,-117l0 -74c0,-31 -11,-62 -34,-92 0,-16 -39,-29 -117,-40l-3 0zm631 -44c-78,7 -117,24 -117,52 10,42 16,86 18,132 -2,0 -2,1 -2,3 3,33 6,51 6,56 0,148 11,231 30,249 0,58 15,173 43,345 10,98 49,195 118,289 0,19 25,32 77,37 90,0 147,-28 169,-86 27,-123 41,-204 43,-243 22,-78 34,-130 34,-157 -2,-19 -6,-36 -12,-49 0,-7 0,-10 3,-10 7,-83 14,-132 21,-148 10,-89 19,-153 28,-193l0 -13 -3 -21c8,-15 14,-56 18,-127 0,-19 -27,-34 -83,-45 -44,0 -71,36 -83,110 -18,55 -37,162 -55,320 -19,87 -28,139 -28,154l-3 0c0,-7 -5,-21 -16,-43 0,-5 1,-21 3,-46l-55 -249c-16,-114 -32,-193 -46,-240 -19,-52 -52,-77 -99,-77l-9 0zm556 3c-37,18 -56,34 -56,49l0 31c1,77 -5,150 -17,219 3,83 6,134 6,150 0,10 -1,23 -3,40 6,29 10,89 12,182 -4,68 -6,119 -6,151 0,2 2,25 6,71l0 129c0,50 6,92 18,123 0,25 30,37 90,37 53,-3 83,-7 89,-12 35,0 54,-12 58,-34l0 -3c0,-18 -3,-42 -9,-71 2,-30 3,-51 3,-62 0,-15 -4,-30 -12,-46 2,-28 3,-53 3,-74l0 -6c-10,-94 -15,-152 -15,-172l2 -12c-2,-63 -3,-103 -3,-121 0,-20 1,-51 3,-92l-6 -52 6 -31c0,-9 0,-22 -3,-40 0,-9 1,-40 3,-93 0,-18 0,-39 -3,-61 0,-32 -7,-64 -21,-95l0 -34c0,-6 -3,-15 -6,-28 -17,-29 -52,-43 -108,-43l-31 0zm276 -37c-13,4 -19,8 -19,10 -24,0 -41,19 -49,58 0,15 8,33 25,53l0 25c0,5 -3,36 -10,92l0 6c9,55 13,99 13,133l0 154c0,15 4,59 12,132l0 114c0,27 4,67 12,120 -6,87 -9,138 -9,154l0 4c0,51 15,90 43,117 63,37 97,55 101,55 52,0 107,-39 163,-117 29,-53 57,-90 87,-111 8,-39 19,-67 33,-83 19,-17 31,-48 37,-93 19,-74 28,-144 28,-209 -2,-68 -6,-107 -12,-117 -2,-78 -9,-117 -19,-117l3 -16 0 -21c0,-53 -33,-123 -101,-207 -39,-41 -76,-69 -111,-83 -93,-16 -144,-27 -154,-34 -17,-9 -42,-15 -73,-19zm178 256c33,93 49,147 49,160 10,0 20,66 31,198 -3,81 -3,126 -3,135 -15,44 -22,67 -22,71l-3 0c-14,-112 -21,-195 -21,-249l0 -34c-23,-154 -34,-234 -34,-244l0 -37 3 0zm554 -281c-38,6 -64,13 -78,21 -21,32 -39,95 -55,187 -7,70 -13,112 -17,126 -20,161 -35,260 -44,295 -4,105 -8,158 -12,158 0,90 -6,178 -17,263 2,4 3,7 3,9 0,14 -4,63 -12,147 0,44 26,67 76,67 0,-3 0,-3 3,-3l0 3c3,-3 22,-5 58,-9 23,0 35,-39 35,-117 0,-43 7,-121 20,-234 44,12 79,18 105,20 16,160 40,240 72,240 5,0 15,-2 29,-6l27 3c10,0 22,-6 37,-17 26,-3 44,-10 55,-24 11,-16 18,-54 18,-116l0 -4 -32 -140c-16,-104 -24,-170 -24,-196 0,-15 -16,-82 -49,-202 0,-116 -16,-197 -49,-243 -11,-52 -21,-83 -30,-93 -30,-90 -69,-135 -118,-135l-1 0zm9 460c8,61 12,101 12,122 18,127 26,199 26,214l0 3 -23 0c-16,0 -33,2 -52,6l-4 0c0,-22 7,-60 21,-114 0,-102 5,-179 17,-231l3 0z"/>
    <path class="fil0" d="M8550 235c-73,11 -115,24 -127,37 -6,9 -17,25 -30,49 -41,39 -62,86 -62,139 5,82 16,142 31,178 38,90 70,147 95,172 5,30 12,54 22,71 14,26 24,86 30,179l0 120c0,18 -16,49 -49,95 -15,0 -31,-33 -49,-98 -7,-56 -25,-83 -53,-83l-21 0c-39,0 -67,22 -83,67l0 13c0,66 24,130 73,190 48,46 89,69 124,69l15 0c42,0 75,-13 98,-41l22 0c7,0 17,-4 27,-12 14,-14 33,-26 59,-34 4,-18 16,-38 33,-61 23,-21 34,-54 34,-99 10,-19 16,-42 16,-71l15 -80 0 -6 -9 -62c-21,-116 -46,-193 -77,-234 -93,-106 -140,-186 -140,-236 0,-72 27,-129 80,-173 24,-14 37,-28 37,-43l0 -6c0,-27 -37,-40 -111,-40z"/>
   </g>
   <path class="fil0" d="M6138 15c-17,-12 -27,-17 -30,-14l-5 5c-13,13 -28,22 -45,28 -14,15 -22,25 -24,27 -2,2 -5,4 -9,6 -2,7 -12,18 -27,35 -14,9 -24,16 -29,22 -1,0 -4,5 -10,14l-23 21c-9,8 -14,17 -15,28 -4,4 5,18 28,43 21,21 33,33 36,34 14,15 23,21 29,19l0 -1c4,-2 7,-8 9,-15 6,-4 10,-7 12,-9 3,-2 4,-6 4,-12 6,-4 10,-8 14,-11l1 -1c13,-20 21,-31 25,-35l3 -1c10,-11 17,-18 20,-21 3,-3 9,-8 17,-13l7 -12 8 -2c1,-2 4,-4 6,-8 1,-1 7,-6 17,-14 3,-3 7,-6 10,-11 6,-5 9,-13 8,-25l6 -5c1,-1 2,-3 3,-7 -1,-12 -12,-28 -34,-52l-12 -13z"/>
  </g>
 </g>
</svg>
