<?xml version="1.0" encoding="UTF-8"?>
<!DOCTYPE svg PUBLIC "-//W3C//DTD SVG 1.1//EN" "http://www.w3.org/Graphics/SVG/1.1/DTD/svg11.dtd">
<!-- Creator: CorelDRAW X8 -->
<svg xmlns="http://www.w3.org/2000/svg" xml:space="preserve" width="26.4253mm" height="23.4514mm" version="1.1" style="shape-rendering:geometricPrecision; text-rendering:geometricPrecision; image-rendering:optimizeQuality; fill-rule:evenodd; clip-rule:evenodd"
viewBox="0 0 245 218"
 xmlns:xlink="http://www.w3.org/1999/xlink">
 <defs>
  <style type="text/css">
   <![CDATA[
    .fil0 {fill:none}
    .fil1 {fill:#463B33}
   ]]>
  </style>
 </defs>
 <g id="Camada_x0020_1">
  <metadata id="CorelCorpID_0Corel-Layer"/>
  <rect class="fil0" width="245" height="218"/>
  <path class="fil1" d="M46 195l153 0c12,0 21,-9 21,-20l0 -132c0,-12 -9,-21 -21,-21l-153 0c-12,0 -21,10 -21,21l0 132c0,11 9,20 21,20zm-11 -152c0,-6 5,-11 11,-11l153 0c6,0 10,5 10,11l0 132c0,5 -4,10 -10,10l-153 0c-6,0 -10,-5 -10,-10l0 -132 -1 0z"/>
  <path class="fil1" d="M163 72c3,15 -3,30 -7,41 -8,-5 -15,-10 -24,-13 2,-7 3,-15 3,-24 10,-1 19,-2 28,-4z"/>
  <path class="fil1" d="M181 71c4,22 -4,41 -17,50 -2,-3 -5,-4 -7,-7 5,-12 9,-25 8,-42 5,-1 10,-2 16,-1z"/>
  <path class="fil1" d="M182 71c13,4 22,10 20,29 0,3 0,6 -1,9 0,11 5,22 -1,30 -1,-2 -3,-5 -4,-8 -1,-7 6,-17 0,-22 -5,3 -8,12 -5,19 -4,4 -9,8 -15,8 0,-4 2,-6 4,-9 2,-6 3,-10 3,-18 -1,-3 -2,-7 -3,-10 0,-2 2,-5 2,-8 1,-7 1,-13 0,-20z"/>
  <path class="fil1" d="M180 101c4,11 1,26 -6,33 -2,-6 -6,-8 -9,-13 7,-5 11,-12 15,-20z"/>
  <path class="fil1" d="M188 162c-3,1 -6,1 -9,0 3,-8 2,-19 -2,-24 5,-3 10,-4 14,-8 4,4 -1,13 0,19 0,3 1,5 1,7 -1,2 -4,3 -4,6z"/>
  <path class="fil1" d="M56 60c1,2 2,4 5,5 0,-3 0,-7 1,-10 2,2 3,6 4,8 9,3 18,4 26,8 -10,6 -19,14 -24,26 -7,-1 -11,-6 -19,-4 -1,-3 -4,-4 -7,-6 0,-2 0,-3 1,-5 5,-5 10,-10 14,-16 -1,-2 -2,-4 -1,-6z"/>
  <path class="fil1" d="M99 73c-5,7 -9,15 -10,27 -6,1 -10,5 -15,8 -1,-4 -3,-8 -5,-11 5,-11 13,-20 24,-26 2,1 4,2 6,2z"/>
  <path class="fil1" d="M116 77c-1,6 -3,11 -3,19 -9,0 -16,1 -22,3 0,-10 4,-21 10,-25 5,1 9,2 15,3z"/>
  <path class="fil1" d="M134 76c0,9 -1,16 -3,24 -5,-2 -11,-3 -17,-4 0,-6 2,-13 3,-19 6,0 11,-1 17,-1z"/>
  <path class="fil1" d="M111 97c1,6 3,11 5,16 -6,-2 -12,1 -11,8 -6,2 -10,-4 -12,-8 -3,-4 -4,-8 -5,-12 6,-3 14,-4 23,-4z"/>
  <path class="fil1" d="M112 97c17,0 27,8 32,19 -9,2 -19,0 -27,-2 -2,-5 -4,-11 -5,-17z"/>
  <path class="fil1" d="M99 122c-3,2 -6,5 -8,8 -8,-4 -14,-11 -16,-21 3,-3 7,-5 11,-7 4,7 7,15 13,20z"/>
  <path class="fil1" d="M134 102c12,5 21,13 31,20 -7,0 -11,5 -14,8 -4,-12 -10,-21 -17,-28z"/>
  <path class="fil1" d="M117 130c-2,4 -6,8 -7,15 0,4 2,8 1,11 -1,3 -4,3 -3,6 -4,1 -7,1 -10,0 4,-12 0,-24 -7,-31 4,-10 21,-13 26,-1z"/>
  <path class="fil1" d="M150 130c-9,-2 -23,-2 -31,0 -4,-4 -7,-8 -13,-9 0,-10 8,-7 16,-5 8,2 15,2 22,0 3,4 4,9 6,14z"/>
 </g>
</svg>
