<?xml version="1.0" encoding="UTF-8"?>
<!DOCTYPE svg PUBLIC "-//W3C//DTD SVG 1.1//EN" "http://www.w3.org/Graphics/SVG/1.1/DTD/svg11.dtd">
<!-- Creator: CorelDRAW X8 -->
<svg xmlns="http://www.w3.org/2000/svg" xml:space="preserve" version="1.1" style="shape-rendering:geometricPrecision; text-rendering:geometricPrecision; image-rendering:optimizeQuality; fill-rule:evenodd; clip-rule:evenodd"
viewBox="0 0 544 483"
 xmlns:xlink="http://www.w3.org/1999/xlink">
 <defs>
  <style type="text/css">
   <![CDATA[
    .fil1 {fill:none}
    .fil0 {fill:#F48884}
   ]]>
  </style>
 </defs>
 <g id="Camada_x0020_1">
  <metadata id="CorelCorpID_0Corel-Layer"/>
  <path class="fil0" d="M464 116c0,-4 -2,-9 -6,-12l-12 -12c-3,-3 -7,-5 -12,-5 -4,0 -9,2 -12,5l-57 57 0 -54c0,-10 -8,-18 -17,-18l-173 0c-10,0 -17,8 -17,18l0 17 -18 0c-9,0 -17,8 -17,17l0 259c0,10 8,18 17,18l173 0c10,0 17,-8 17,-18l0 -17 18 0c9,0 17,-8 17,-17l0 -132 93 -94c3,-3 6,-7 6,-12zm-151 272l-173 0 0 -259 18 0 0 225c0,9 7,17 17,17l138 0 0 17zm35 -34l-173 0 0 -259 173 0 0 71 -28 28 -76 0 0 9 67 0 -17 17 -50 0 0 9 41 0 -17 17 -24 0 0 8 15 0 -11 12c-1,1 -2,2 -3,3l0 0 -14 34 0 -5 -34 0 0 8 33 0 -7 18 -26 0 0 8 34 0 0 -6 48 -20 47 0 0 -8 -37 0 18 -18 19 0 0 -8 -11 0 33 -33 0 115zm-76 -64l-6 -6 -6 -6 153 -153 12 12 -153 153zm159 -159l-12 -12 15 -15 12 12 -15 15zm-105 20l-82 0 0 -9 82 0 0 9zm-95 52l-34 0 0 -9 34 0 0 9zm0 -52l-34 0 0 -9 34 0 0 9zm0 -26l-34 0 0 -9 34 0 0 9zm0 104l-34 0 0 -9 34 0 0 9zm0 25l-34 0 0 -8 34 0 0 8zm95 -77l-82 0 0 -9 82 0 0 9zm0 -52l-82 0 0 -9 82 0 0 9z"/>
  <rect class="fil1" width="544" height="483"/>
 </g>
</svg>
