<?xml version="1.0" encoding="UTF-8"?>
<!DOCTYPE svg PUBLIC "-//W3C//DTD SVG 1.1//EN" "http://www.w3.org/Graphics/SVG/1.1/DTD/svg11.dtd">
<!-- Creator: CorelDRAW X8 -->
<svg xmlns="http://www.w3.org/2000/svg" xml:space="preserve" version="1.1" style="shape-rendering:geometricPrecision; text-rendering:geometricPrecision; image-rendering:optimizeQuality; fill-rule:evenodd; clip-rule:evenodd"
viewBox="0 0 933 828"
 xmlns:xlink="http://www.w3.org/1999/xlink">
 <defs>
  <style type="text/css">
   <![CDATA[
    .fil0 {fill:none}
    .fil2 {fill:#0CC042}
    .fil1 {fill:#FEFEFE}
   ]]>
  </style>
 </defs>
 <g id="Camada_x0020_1">
  <metadata id="CorelCorpID_0Corel-Layer"/>
  <rect class="fil0" width="933" height="828"/>
  <path class="fil1" d="M451 131c-33,4 -59,11 -86,24 -22,10 -52,29 -68,45 -42,43 -68,80 -82,143 -11,49 -8,101 8,148 2,7 17,39 17,41 0,0 -27,72 -30,81 -5,15 -9,28 -14,42 -3,12 -11,33 -13,44 10,-2 133,-48 152,-55 20,-7 5,-3 50,14 76,29 158,20 226,-17 177,-98 190,-361 9,-472 -39,-24 -89,-41 -146,-40 0,0 -23,2 -23,2z"/>
  <path class="fil2" d="M365 594c3,2 15,9 17,9 44,20 91,30 147,18 118,-26 196,-142 174,-262 -3,-18 -8,-34 -15,-51 -3,-5 -6,-10 -7,-15 -2,-2 0,0 -2,-3 -1,0 -2,-2 -2,-2 -2,-3 -2,-3 -3,-6 -2,-3 -9,-14 -13,-19 -82,-110 -239,-121 -335,-27 -57,55 -91,150 -55,244 3,8 6,15 10,22 2,5 11,20 12,22 1,5 -32,79 -35,97 12,-3 91,-35 96,-34 3,0 9,5 11,7z"/>
  <path class="fil1" d="M373 263c-20,4 -24,19 -31,43 -5,22 -6,44 -2,67 13,67 80,137 143,155 20,6 45,9 67,5 17,-3 46,-10 53,-22 26,-43 -42,-91 -74,-48 -3,4 -3,7 -9,9 -8,2 -23,-2 -30,-5 -25,-10 -63,-51 -78,-72 -6,-9 -14,-30 -13,-41 1,-8 4,-8 9,-11 13,-10 24,-33 14,-54 -7,-13 -27,-31 -49,-26z"/>
 </g>
</svg>
