<?xml version="1.0" encoding="UTF-8"?>
<!DOCTYPE svg PUBLIC "-//W3C//DTD SVG 1.1//EN" "http://www.w3.org/Graphics/SVG/1.1/DTD/svg11.dtd">
<!-- Creator: CorelDRAW X8 -->
<svg xmlns="http://www.w3.org/2000/svg" xml:space="preserve" version="1.1" style="shape-rendering:geometricPrecision; text-rendering:geometricPrecision; image-rendering:optimizeQuality; fill-rule:evenodd; clip-rule:evenodd"
viewBox="0 0 933 828"
 xmlns:xlink="http://www.w3.org/1999/xlink">
 <defs>
  <style type="text/css">
   <![CDATA[
    .fil2 {fill:none}
    .fil0 {fill:#F48884}
    .fil1 {fill:#4A4037}
   ]]>
  </style>
 </defs>
 <g id="Camada_x0020_1">
  <metadata id="CorelCorpID_0Corel-Layer"/>
  <g id="_2450238587488">
   <path class="fil0" d="M657 402l-208 0 -183 0 1 0c0,-1 -19,-66 -6,-93 9,-16 27,-26 57,-29l3 -1 2 -3c1,-1 16,-29 43,-37 13,-4 27,-1 42,7l6 4 4 -6c0,0 26,-35 52,-33 14,2 25,13 35,33l3 7 7 -3c1,0 31,-14 54,-3 11,5 19,16 23,31l2 6 5 0c1,0 59,3 75,30 8,15 -3,63 -18,90l1 0z"/>
   <path class="fil1" d="M777 517l-33 -135c0,0 -1,-7 -5,-14l0 0c0,-1 -8,-26 -53,-35l-2 10c14,3 24,8 30,12 -4,1 -9,2 -15,6 0,0 -225,78 -478,-3 0,0 -2,-1 -5,-2 8,-7 20,-16 37,-19l-3 -10c-38,9 -55,39 -56,40l0 0c-2,5 -4,10 -6,19l-34 148c0,0 -14,32 20,42 0,0 251,120 594,0 0,0 25,-5 9,-59zm-213 -6c6,7 10,16 7,24 -3,12 -16,20 -27,13 -8,-5 -8,-16 -8,-24 -18,-4 -36,-4 -55,-4 -6,0 -11,0 -18,1 -15,1 -29,3 -44,6 -8,2 -14,2 -22,4 -2,6 -4,14 -10,17 -7,3 -15,2 -21,0 -6,-3 -11,-8 -10,-15 1,-2 1,-4 1,-6 2,-6 7,-11 11,-16l0 0c-4,-7 -10,-15 -8,-24 4,-10 17,-19 28,-12 7,6 7,15 8,23 46,9 93,2 139,-7 1,-7 4,-14 9,-17 11,-4 28,-2 31,11 2,10 -5,19 -12,26l1 0 0 0z"/>
   <path class="fil1" d="M673 384l-13 -7c15,-27 18,-48 10,-63 -16,-27 -68,-28 -68,-28l-6 0 -1 -6c-5,-16 -13,-26 -24,-32 -23,-10 -53,3 -53,4l-7 3 -3 -7c-10,-21 -22,-32 -35,-33 -26,-3 -52,32 -53,33l-4 5 -6 -3c-14,-9 -28,-11 -42,-7 -26,7 -42,36 -42,36l-2 4 -4 0c-29,4 -48,13 -56,29 -14,28 6,64 7,65l-14 7c-1,-2 -24,-44 -7,-79 10,-20 32,-32 64,-37 6,-9 23,-33 50,-40 16,-5 32,-3 48,5 10,-11 35,-36 62,-34 18,2 32,14 44,36 12,-4 38,-11 59,-1 15,7 25,19 31,37 15,1 58,6 75,36 11,20 8,46 -10,77z"/>
  </g>
  <rect class="fil2" width="933" height="828"/>
 </g>
</svg>
