<?xml version="1.0" encoding="UTF-8"?>
<!DOCTYPE svg PUBLIC "-//W3C//DTD SVG 1.1//EN" "http://www.w3.org/Graphics/SVG/1.1/DTD/svg11.dtd">
<!-- Creator: CorelDRAW X8 -->
<svg xmlns="http://www.w3.org/2000/svg" xml:space="preserve" width="82.1594mm" height="13.7588mm" version="1.1" style="shape-rendering:geometricPrecision; text-rendering:geometricPrecision; image-rendering:optimizeQuality; fill-rule:evenodd; clip-rule:evenodd"
viewBox="0 0 1101 184"
 xmlns:xlink="http://www.w3.org/1999/xlink">
 <defs>
  <style type="text/css">
   <![CDATA[
    .fil0 {fill:#4A4037;fill-rule:nonzero}
   ]]>
  </style>
 </defs>
 <g id="Camada_x0020_1">
  <metadata id="CorelCorpID_0Corel-Layer"/>
  <path class="fil0" d="M42 6c-6,0 -11,1 -14,2 -5,2 -9,7 -15,15 -4,7 -7,19 -9,36 0,0 0,0 0,0 0,0 0,0 0,0 0,1 0,2 0,2 -2,13 -4,23 -4,29 0,1 0,1 0,2l0 0 0 3 0 10c0,11 1,22 2,31 5,26 9,40 13,40 4,4 8,7 12,7l3 0c3,-1 5,-1 5,-1 10,-1 15,-3 15,-5 4,-1 6,-3 6,-4l9 -5c5,-7 7,-14 7,-19l-1 -6 1 -1 -1 -3 0 -2 0 -1c0,-1 0,-2 -1,-5 0,0 0,-1 0,-1l0 -3c-1,-5 -2,-9 -2,-11 0,-4 -3,-7 -8,-8l0 0 -1 0 -2 0c-13,2 -19,5 -19,9l0 0c1,5 2,10 2,14 0,5 0,9 -1,11 0,4 -2,8 -6,13 -1,0 -1,-2 -1,-7 -2,-4 -3,-7 -3,-8 0,-1 0,-3 0,-6 0,-4 0,-7 -1,-7l1 0c-1,-1 -1,-4 -1,-9l0 -4 0 -2c0,0 0,0 0,0 0,-1 0,-3 1,-7 -1,0 -1,0 -1,-1l1 0c0,-4 0,-9 1,-14l0 0c1,-8 2,-13 2,-15 0,-7 1,-14 4,-22l-1 -7 4 -16c1,0 2,2 2,6 0,3 0,8 0,13 1,6 1,10 1,13l0 0 0 2c0,0 0,0 0,1 0,0 0,1 0,1 0,4 1,6 2,8 0,3 3,6 11,8 1,0 2,-1 2,-1 8,0 13,-4 13,-11 -1,0 -1,0 -1,0l1 -1c0,-1 -1,-1 -1,-2l1 -1c-1,-1 -1,-6 -2,-15 0,-1 0,-3 0,-6l-1 -2c1,-3 2,-4 2,-5l0 -2c0,-3 -2,-8 -4,-13 -2,-4 -3,-7 -6,-8 -1,-3 -3,-5 -7,-5 -3,-3 -5,-4 -8,-4 0,0 -1,1 -1,1l-1 -1 0 0zm79 13c-8,0 -15,2 -22,4 -2,1 -5,3 -8,6 -6,17 -9,27 -9,31 -2,10 -4,16 -4,19 0,0 1,1 1,1 -2,1 -2,8 -2,21l0 2c0,3 0,8 0,12l-1 9c1,0 1,1 1,3 2,12 5,21 8,27 3,11 9,16 16,16l2 0c2,0 6,0 11,-2 6,2 9,2 11,2 5,0 8,-2 9,-6 4,0 6,-3 8,-9 5,-8 7,-15 7,-21 2,-10 3,-18 3,-25l0 -1c0,-9 -1,-17 -3,-24 2,-6 2,-9 2,-10 0,-1 0,-2 0,-2 0,-11 -2,-22 -6,-32 -4,-14 -12,-21 -24,-21zm-5 23c2,6 4,14 7,23 -1,2 -1,4 -1,5l0 2c1,11 2,18 2,23 0,9 -1,17 -2,26 -2,11 -4,19 -7,22l0 0c-3,-17 -5,-30 -5,-41l0 -4c0,-1 0,-3 0,-5 0,-2 1,-7 1,-15l0 -1c0,-2 1,-3 1,-4l0 -7c1,-12 3,-20 4,-24l0 0zm59 -29c-2,0 -5,0 -9,1 -3,0 -4,10 -4,28l0 3c0,0 0,1 0,2l0 6c-1,11 -2,17 -2,19 1,12 1,23 1,35 -1,7 -1,18 -1,32 0,2 0,3 0,3 0,18 3,27 8,27l10 0c12,0 18,-3 18,-8l-1 -1c1,-6 2,-9 2,-10 0,-2 -1,-4 -2,-8 2,-14 2,-26 2,-33 0,-1 0,-4 0,-9l0 -1 0 0c2,9 3,15 4,17 0,3 5,4 15,4 3,-1 5,-2 7,-4 2,-2 4,-9 7,-22l0 0 0 1 -1 9 2 22c0,3 0,5 -1,7l1 13c0,1 0,3 0,5l0 16c5,7 11,11 17,11 2,0 5,-2 8,-5 1,0 2,-11 2,-32 0,-7 -1,-16 -2,-27l0 -2c0,-2 0,-5 1,-9 0,-2 -1,-4 -1,-5 0,-2 0,-4 0,-5l0 -7 -3 -43c0,-4 0,-7 0,-9 0,-7 -1,-11 -1,-11 0,-4 -1,-6 -3,-6l-2 0c-8,0 -14,2 -18,5 -3,2 -9,14 -18,37l-1 0c-3,-11 -6,-20 -9,-26 -9,-13 -18,-20 -26,-20zm22 84l0 1 0 0 0 -1 0 0zm111 -78c-8,0 -15,2 -22,4 -2,1 -5,3 -8,6 -5,17 -8,27 -8,31 -3,10 -4,16 -4,19 0,0 0,1 0,1 -1,1 -2,8 -2,21l0 2c0,3 0,8 0,12l-1 9c1,0 1,1 1,3 2,12 5,21 8,27 4,11 9,16 17,16l1 0c2,0 6,0 11,-2 6,2 10,2 11,2 5,0 8,-2 10,-6 3,0 5,-3 7,-9 5,-8 7,-15 7,-21 2,-10 3,-18 3,-25l0 -1c0,-9 -1,-17 -2,-24 1,-6 1,-9 1,-10 0,-1 0,-2 0,-2 0,-11 -2,-22 -6,-32 -4,-14 -12,-21 -24,-21zm-4 23c1,6 3,14 6,23 -1,2 -1,4 -1,5l0 2c2,11 2,18 2,23 0,9 0,17 -2,26 -2,11 -4,19 -6,22l-1 0c-3,-17 -5,-30 -5,-41l0 -4c0,-1 0,-3 0,-5 0,-2 1,-7 1,-15l0 -1c1,-2 1,-3 1,-4l0 -7c2,-12 3,-20 4,-24l1 0zm119 -35c-5,1 -7,1 -7,1 -10,0 -15,4 -15,10 0,3 0,6 0,10 0,5 0,8 0,11l1 9c0,1 0,5 -1,10 0,10 0,20 1,30 0,1 -1,5 -1,10l0 5c0,2 1,5 2,8 0,6 -1,9 -1,11 1,8 1,13 2,13 1,12 2,19 2,19 0,9 1,17 5,24 1,2 3,3 8,3l0 0c15,-1 23,-4 23,-8l0 -2c0,-3 -1,-7 -3,-11 0,-8 -1,-15 -3,-21 0,-2 0,-5 1,-9 -2,-9 -3,-14 -3,-14 1,-3 1,-5 1,-8l0 -3c0,-1 0,-3 -1,-4l0 -1c0,-2 0,-7 -2,-14 0,-8 1,-13 1,-16 0,-1 -1,-3 -2,-7 4,-1 8,-1 10,-1l6 1c4,-2 6,-3 6,-4 3,0 4,-3 4,-8 0,-4 -2,-6 -8,-6l-9 0 -1 0c0,0 -3,0 -9,0 0,-1 -1,-7 -1,-19l0 -2c2,1 3,1 4,1l7 -3c1,0 3,1 7,2 9,-2 13,-5 13,-8 0,-1 0,-2 0,-4 0,-3 -8,-5 -24,-5 -1,0 -2,0 -3,1l-10 -1 0 0zm107 4c-6,2 -9,4 -9,8l0 11c0,6 0,9 1,11l-1 0c0,0 1,2 1,6 0,3 0,5 -1,5 0,20 -1,33 -2,39 -3,13 -4,21 -4,23 -3,16 -5,24 -7,26 -1,-3 -2,-6 -2,-10l0 0c-1,-8 -2,-14 -2,-19l0 -6c0,-3 1,-6 1,-10 0,0 -1,-1 -1,-1l1 -1 -1 -11c1,-4 1,-10 1,-17 -1,-10 -2,-15 -2,-17 0,-2 0,-6 1,-13 0,-2 -1,-6 -2,-10 -4,-5 -8,-8 -14,-8 0,0 0,0 0,0l0 0 -1 0 -3 0c-3,0 -7,1 -10,2 -4,0 -6,3 -6,8l0 7c-2,42 -3,65 -3,69 0,16 2,30 5,42 5,10 9,18 14,24 5,6 10,9 14,9l1 0 0 0 1 0 0 0c7,0 15,-3 24,-7 12,-6 19,-15 23,-25 1,0 3,-10 4,-29 3,-11 4,-20 4,-26 0,-3 0,-9 0,-16l0 -7 -3 -16c-3,-15 -6,-27 -9,-34 -2,-5 -5,-7 -11,-7l-2 0zm103 -4c-5,0 -8,2 -8,4l0 10c0,2 0,6 -1,12l0 6c0,2 0,3 0,5 0,1 0,2 0,4l0 2c0,3 0,5 0,6 0,1 0,6 0,13 -2,15 -2,23 -2,25l-1 0c0,-3 0,-4 -1,-4 -2,-12 -4,-20 -6,-23 0,-7 -2,-12 -5,-16 0,-6 -2,-11 -5,-14 -1,-4 -2,-8 -4,-10 -3,-4 -5,-7 -5,-9 0,-2 -6,-4 -18,-4 -3,0 -5,1 -7,2 -3,0 -4,3 -4,11 0,2 0,6 0,12 0,17 -2,33 -3,50 0,5 1,8 1,11 0,2 0,4 -1,7l1 3c-1,3 -1,5 -1,6 0,3 1,9 2,18 0,1 -1,9 -2,21 0,11 6,17 16,17 3,0 7,-1 11,-4 1,-1 1,-8 2,-20 0,-2 0,-10 -1,-26l0 -2c0,-1 0,-3 1,-6l0 0 7 23c4,14 7,24 9,28 3,7 7,10 12,10 16,-4 24,-9 24,-18l0 -6c1,-5 1,-8 1,-9 0,-2 0,-6 0,-11 1,-5 1,-13 1,-26 0,-1 0,-2 0,-5 1,-2 1,-6 1,-11l0 -1c0,-5 0,-9 -1,-12 1,-2 2,-5 2,-9l0 0c0,-6 -1,-12 -2,-16l1 -21c0,-2 -2,-5 -3,-9 -1,-6 -1,-10 -2,-10 0,-3 -2,-4 -7,-4l-2 0zm-12 89l0 1 0 0 0 -1 0 0zm77 -90c-6,0 -11,1 -14,2 -4,2 -9,7 -15,15 -4,7 -7,19 -9,36 0,0 0,0 0,0 0,0 0,0 0,0 0,1 0,2 0,2 -2,13 -3,23 -3,29 0,1 -1,1 -1,2l1 0 -1 3 0 10c0,11 1,22 2,31 5,26 10,40 13,40 4,4 8,7 13,7l2 0c3,-1 5,-1 5,-1 10,-1 15,-3 15,-5 4,-1 6,-3 6,-4l9 -5c5,-7 7,-14 7,-19l-1 -6 1 -1 -1 -3 0 -2 0 -1c0,-1 0,-2 -1,-5 0,0 0,-1 0,-1l0 -3c-1,-5 -2,-9 -2,-11 0,-4 -3,-7 -8,-8l0 0 0 0 -3 0c-12,2 -19,5 -19,9l0 0c2,5 2,10 2,14 0,5 0,9 -1,11 0,4 -2,8 -6,13 -1,0 -1,-2 -1,-7 -2,-4 -3,-7 -3,-8 0,-1 0,-3 0,-6 0,-4 0,-7 -1,-7l1 0c-1,-1 -1,-4 -1,-9l0 -4 0 -2c0,0 0,0 0,0 0,-1 0,-3 1,-7 -1,0 -1,0 -1,-1l1 0c0,-4 0,-9 1,-14l0 0c1,-8 2,-13 2,-15 0,-7 2,-14 4,-22l-1 -7 4 -16c1,0 2,2 2,6 0,3 0,8 0,13 1,6 1,10 1,13l0 0 0 2c0,0 0,0 0,1 0,0 0,1 0,1 0,4 1,6 2,8 0,3 4,6 11,8 1,0 2,-1 2,-1 9,0 13,-4 13,-11 -1,0 -1,0 -1,0l1 -1c0,-1 0,-1 -1,-2l1 -1c-1,-1 -1,-6 -2,-15 0,-1 0,-3 0,-6l-1 -2c1,-3 2,-4 2,-5l0 -2c0,-3 -2,-8 -4,-13 -1,-4 -3,-7 -5,-8 -2,-3 -4,-5 -8,-5 -2,-3 -5,-4 -8,-4 0,0 0,1 -1,1l-1 -1 0 0zm63 -4c-7,0 -14,1 -21,3 -2,3 -3,6 -4,9l1 8c2,6 7,9 17,9 10,-1 15,-2 15,-2 6,-6 9,-11 9,-16 0,-7 -6,-11 -17,-11zm-8 45c-2,0 -4,0 -5,0 -5,2 -8,5 -8,7l0 4c0,5 0,9 0,13 -2,12 -3,22 -4,30l1 17c0,8 -1,13 -1,15l3 35c0,6 1,10 3,11 1,4 4,5 9,5l2 0c6,0 10,0 13,-2 5,-1 8,-2 8,-5l0 -2 -3 -36c0,0 1,-4 2,-12 -1,-6 -1,-10 -1,-12 1,-9 1,-14 1,-16l0 -2 0 -3c1,-3 1,-6 1,-9l0 -2c0,-2 0,-4 -1,-6 1,-2 1,-4 1,-5 0,-3 0,-8 -2,-14 -1,-7 -7,-11 -16,-11l-3 0zm72 -28c-8,0 -15,2 -22,4 -2,1 -5,3 -8,6 -5,17 -8,27 -8,31 -3,10 -4,16 -4,19 0,0 0,1 0,1 -1,1 -2,8 -2,21l0 2c0,3 0,8 0,12l0 9c0,0 0,1 0,3 2,12 5,21 8,27 4,11 9,16 17,16l1 0c2,0 6,0 11,-2 6,2 10,2 11,2 5,0 8,-2 10,-6 3,0 5,-3 7,-9 5,-8 7,-15 7,-21 2,-10 3,-18 3,-25l0 -1c0,-9 -1,-17 -2,-24 1,-6 1,-9 1,-10 0,-1 0,-2 0,-2 0,-11 -2,-22 -6,-32 -4,-14 -12,-21 -24,-21zm-4 23c1,6 3,14 6,23 -1,2 -1,4 -1,5l0 2c2,11 2,18 2,23 0,9 0,17 -2,26 -2,11 -4,19 -6,22l-1 0c-3,-17 -5,-30 -5,-41l0 -4c0,-1 0,-3 0,-5 0,-2 1,-7 1,-15l0 -1c1,-2 1,-3 1,-4l0 -7c2,-12 3,-20 4,-24l1 0zm112 -35c-6,0 -8,2 -8,4l0 10c0,2 -1,6 -2,12l0 6c0,2 1,3 1,5 0,1 -1,2 -1,4l0 2c0,3 1,5 1,6 0,1 -1,6 -1,13 -1,15 -2,23 -2,25l0 0c0,-3 -1,-4 -2,-4 -1,-12 -3,-20 -5,-23 0,-7 -2,-12 -6,-16 0,-6 -1,-11 -4,-14 -1,-4 -3,-8 -4,-10 -3,-4 -5,-7 -6,-9 0,-2 -6,-4 -17,-4 -3,0 -5,1 -7,2 -3,0 -4,3 -4,11 0,2 0,6 0,12 -1,17 -2,33 -4,50 1,5 1,8 1,11 1,2 0,4 0,7l1 3c-1,3 -1,5 -1,6 0,3 0,9 1,18 0,1 0,9 -1,21 0,11 5,17 16,17 3,0 7,-1 11,-4 0,-1 1,-8 2,-20 0,-2 -1,-10 -1,-26l0 -2c0,-1 0,-3 0,-6l1 0 6 23c5,14 8,24 9,28 4,7 8,10 12,10 17,-4 25,-9 25,-18l-1 -6c1,-5 2,-8 2,-9 0,-2 -1,-6 -1,-11 1,-5 2,-13 2,-26 0,-1 0,-2 0,-5 0,-2 1,-6 1,-11l0 -1c0,-5 0,-9 -1,-12 1,-2 1,-5 1,-9l0 0c0,-6 0,-12 -1,-16l1 -21c-1,-2 -2,-5 -4,-9 0,-6 -1,-10 -1,-10 0,-3 -2,-4 -7,-4l-2 0zm-12 89l0 1 -1 0 0 -1 1 0zm73 -83c-8,0 -12,1 -13,5 -4,2 -7,4 -8,7 0,3 -2,13 -6,30 -4,29 -8,50 -10,63 0,5 0,9 0,11 -2,12 -3,22 -3,30l0 5c2,7 7,11 15,11 1,0 3,-1 6,-3 2,-1 3,-4 3,-10 2,-4 3,-7 4,-10 -1,0 -1,-2 -2,-6 1,-3 2,-6 2,-7l0 -3 -1 -1c1,-1 1,-1 1,-1l3 0c6,0 10,0 10,1 1,15 4,29 11,41 1,3 5,5 12,5 4,0 8,-1 10,-3 3,0 4,-2 4,-6l0 -2c0,-1 -1,-8 -1,-20l0 0 0 -1c-1,-5 -2,-8 -3,-8 0,-1 0,-2 1,-5 0,-2 -1,-4 -2,-6 1,-2 1,-4 1,-4 0,-1 0,-3 -1,-7l1 -8c0,-3 -1,-7 -2,-9 0,-7 -1,-14 -3,-21 -1,-9 -2,-13 -4,-13 1,-1 1,-2 1,-3 0,-2 0,-5 -2,-10 -1,-2 -2,-6 -3,-12 -3,-5 -4,-8 -4,-11 -6,-13 -12,-19 -17,-19l0 0zm-4 50c3,12 4,23 4,32l0 2c0,3 0,7 -1,12 0,5 1,8 1,9l0 1 -4 0c-2,0 -4,0 -7,-1 0,-3 0,-7 1,-11 0,-3 0,-5 0,-8l0 -1c2,-10 4,-22 5,-35l1 0zm79 -63c-2,0 -5,1 -8,2 -6,0 -12,4 -19,12 -4,6 -6,12 -6,18 0,1 0,2 0,4 0,2 -1,5 -1,9 0,1 0,2 0,5 0,3 4,4 12,6 0,-1 1,-1 3,-1 3,0 6,-3 8,-9 0,-2 -1,-5 -1,-10 1,-4 1,-7 2,-8 1,-6 3,-11 6,-14 1,0 1,0 2,1 4,3 6,8 6,14l0 5c0,2 -1,4 -3,7 -6,12 -9,18 -9,19l-7 21c0,6 -2,12 -4,18 0,1 1,3 1,4l0 0c0,1 -1,2 -1,4l1 13c3,10 8,15 14,15 8,-2 12,-4 12,-8 2,-2 3,-4 4,-6l-1 -2c0,-2 0,-5 1,-7 -1,-2 -1,-3 -1,-5 2,-6 3,-9 3,-10 0,0 0,-1 -1,-3 0,-1 0,-1 0,-1 0,-7 1,-11 3,-12 0,-4 1,-9 3,-14 6,-7 9,-12 9,-13 0,-4 1,-9 4,-14 0,-3 -1,-8 -4,-14 0,-5 -3,-11 -9,-16 -5,-7 -11,-10 -19,-10zm-4 146c-2,0 -3,1 -3,1 -9,4 -13,7 -13,12l0 0c3,12 8,18 15,18l4 -1c10,-3 16,-9 16,-17 -1,-3 -1,-6 -2,-8 0,-2 -6,-4 -17,-5z"/>
 </g>
</svg>
