<?xml version="1.0" encoding="UTF-8"?>
<!DOCTYPE svg PUBLIC "-//W3C//DTD SVG 1.1//EN" "http://www.w3.org/Graphics/SVG/1.1/DTD/svg11.dtd">
<!-- Creator: CorelDRAW X8 -->
<svg xmlns="http://www.w3.org/2000/svg" xml:space="preserve" class="icon" version="1.1" style="shape-rendering:geometricPrecision; text-rendering:geometricPrecision; image-rendering:optimizeQuality; fill-rule:evenodd; clip-rule:evenodd"
viewBox="0 0 1266 635"
 xmlns:xlink="http://www.w3.org/1999/xlink">
 <defs>
  <style type="text/css">
   <![CDATA[
    .str0 {stroke:#4A4037;stroke-width:22.9244}
    .fil2 {fill:none}
    .fil0 {fill:#F48884;fill-rule:nonzero}
    .fil1 {fill:#4A4037;fill-rule:nonzero}
   ]]>
  </style>
 </defs>
 <g id="Camada_x0020_1">
  <metadata id="CorelCorpID_0Corel-Layer"/>
  <g id="_1974888910640">
   <path class="fil0" d="M146 238c0,1 0,1 -1,1l-3 0c-3,0 -5,0 -5,1l-35 4c-7,2 -10,3 -10,5 0,3 1,8 3,15 0,0 0,0 0,1l0 2c0,2 0,5 -1,8 1,1 2,5 2,11 0,5 0,14 -1,28 1,5 1,10 2,15 0,3 0,5 0,7 0,17 1,28 1,35 0,3 0,7 0,9 0,3 0,4 1,4 1,20 2,30 2,30 0,8 1,14 3,17 10,6 21,10 31,10l2 0c3,0 4,-1 4,-2 4,0 5,-4 5,-13l0 -2c-1,-1 -3,-9 -5,-22 0,-3 1,-12 2,-27 0,-1 -1,-5 -3,-10 1,-3 1,-5 1,-5 0,-2 0,-6 -1,-10 1,-4 1,-7 1,-9l0 -12c0,-5 0,-12 -2,-22l0 -1 1 0c15,-3 22,-7 22,-13l0 -1c0,-3 -2,-5 -6,-5 -9,0 -15,1 -18,1 -1,0 -2,-2 -3,-5l0 -1 1 -4c-4,-9 -6,-16 -8,-20l0 0 9 0 4 0c0,0 0,0 0,0l1 0c7,-1 12,-3 16,-5 5,-1 7,-4 7,-10 0,-3 -5,-5 -15,-5l-4 1c0,0 0,-1 0,-1l0 0zm63 21c0,0 -2,1 -6,3l-5 0c-8,0 -14,3 -17,10 -7,17 -11,27 -11,32 -4,17 -5,28 -5,33 0,2 0,7 1,15 8,45 23,68 44,68l2 0c3,0 8,-1 15,-2 7,-2 11,-5 12,-8 5,-3 8,-7 9,-12 6,-15 8,-31 8,-49 0,-14 -2,-28 -5,-43 -1,-7 -1,-12 -2,-15 -3,-5 -6,-10 -7,-14 -3,-12 -13,-18 -30,-18l-3 0zm-1 25c1,0 2,1 4,3 2,12 4,20 7,26 2,11 4,23 6,39 -1,0 -1,0 -1,0l1 1c0,19 -2,32 -6,39 -2,-1 -3,-3 -4,-6 -2,-9 -5,-16 -9,-22 0,0 0,0 0,-1l0 -1c-2,-15 -3,-25 -3,-30 0,-6 0,-12 1,-18 0,-13 2,-24 4,-30zm67 -42c-9,1 -13,4 -13,8 0,14 -1,41 -1,80 0,2 0,3 0,3 0,16 1,31 3,45 2,32 3,50 6,54 1,4 5,6 11,6 17,-2 26,-5 26,-8l0 -8c0,-6 -1,-14 -3,-24 0,0 0,-1 1,-3l0 0 2 5c10,20 15,32 15,37 0,2 5,4 14,6 1,0 2,0 4,-1 8,-4 12,-8 12,-12l0 0c0,-1 0,-3 0,-5 -4,-10 -6,-15 -6,-17 -2,-2 -5,-9 -8,-21 -5,-10 -8,-15 -8,-16 -2,-8 -8,-16 -18,-23 2,-2 4,-4 4,-4 8,-10 12,-19 12,-27l0 -3c1,-4 2,-7 2,-8l0 -3c0,-7 0,-10 -1,-10 0,-8 -1,-16 -5,-25 -3,-8 -8,-15 -15,-21 -3,-4 -15,-5 -34,-5zm17 18c10,6 15,19 15,39l0 7c0,8 -3,15 -8,22l-1 0 -3 -21 0 -12c0,-2 -1,-6 -2,-11 0,-1 0,-2 0,-3 0,-12 -1,-19 -1,-21l0 0zm97 -24c-6,1 -10,2 -12,4 -4,5 -7,15 -9,30 -1,12 -2,18 -3,21 -3,26 -6,42 -7,48 -1,17 -1,25 -2,25 0,15 -1,29 -3,43 0,1 1,1 1,2 0,2 -1,10 -2,23 0,8 4,11 12,11 0,0 0,0 0,0l0 0c1,0 4,0 10,-1 4,0 6,-6 6,-19 0,-7 1,-20 3,-38 7,2 13,3 17,3 2,26 6,39 12,39 0,0 2,0 4,-1l5 1c1,0 3,-1 6,-3 4,-1 7,-2 9,-4 1,-3 3,-9 3,-19l0 0 -6 -23c-2,-17 -3,-28 -3,-32 0,-3 -3,-14 -9,-33 0,-19 -2,-32 -8,-40 -1,-8 -3,-13 -4,-15 -5,-14 -12,-22 -20,-22l0 0zm2 75c1,10 2,17 2,20 3,21 4,32 4,35l0 0 -4 0c-2,0 -5,1 -8,1l-1 0c0,-3 1,-9 4,-18 0,-17 0,-29 2,-38l1 0zm122 -70c-2,0 -3,1 -3,1 -4,0 -6,3 -8,10 0,2 2,5 4,8l0 4c0,1 0,6 -1,15l0 1c1,9 2,16 2,22l0 25c0,2 1,9 2,21l0 19c0,4 1,11 2,19 -1,14 -2,23 -2,25l0 1c0,8 3,15 7,19 11,6 16,9 17,9 8,0 17,-6 26,-19 5,-9 10,-15 14,-18 2,-6 4,-11 6,-14 3,-2 5,-7 6,-15 3,-12 4,-23 4,-34 0,-11 -1,-17 -2,-19 0,-12 -1,-19 -3,-19l1 -2 0 -4c0,-8 -6,-20 -17,-33 -6,-7 -12,-12 -18,-14 -15,-2 -23,-4 -25,-5 -2,-2 -6,-3 -12,-3zm29 41c6,15 8,24 8,26 2,0 4,11 5,32 0,13 0,21 0,22 -3,7 -4,11 -4,12l0 0c-2,-18 -4,-32 -4,-41l0 -5c-3,-25 -5,-38 -5,-40l0 -6 0 0zm95 -23c0,0 -2,1 -6,3l-5 0c-9,0 -14,3 -17,10 -7,17 -11,27 -11,32 -4,17 -5,28 -5,33 0,2 0,7 1,15 8,45 23,68 44,68l2 0c3,0 8,-1 15,-2 7,-2 11,-5 12,-8 5,-3 8,-7 9,-12 6,-15 8,-31 8,-49 0,-14 -2,-28 -5,-43 -1,-7 -1,-12 -2,-15 -3,-5 -6,-10 -7,-14 -3,-12 -13,-18 -30,-18l-3 0zm-1 25c1,0 2,1 4,3 2,12 4,20 7,26 2,11 4,23 6,39 -1,0 -1,0 -1,0l1 1c0,19 -2,32 -6,39 -2,-1 -3,-3 -4,-6 -2,-9 -5,-16 -9,-22 0,0 0,0 0,-1l0 -1c-2,-15 -3,-25 -3,-30 0,-6 0,-12 1,-18 0,-13 2,-24 4,-30zm143 -40c-8,1 -13,2 -15,3 -7,6 -10,10 -10,14 0,1 1,3 2,5 -1,5 -1,10 -1,15l0 8c-1,12 -2,20 -2,23 1,16 1,30 1,42 0,7 -1,11 -1,12 1,0 1,1 1,1 0,1 -1,2 -1,4l0 4c0,4 1,7 1,9 0,3 0,5 0,7 0,2 0,5 1,10 0,3 -1,10 -2,23 0,5 1,9 3,11 2,2 8,4 17,4l4 0c6,-5 9,-9 9,-13l-1 -4c1,-2 2,-5 2,-9l0 0c-1,-8 -1,-13 -1,-14l1 -1c-1,0 -1,0 -1,0l0 -1c0,-1 0,-6 -1,-14l0 -1c0,-1 5,-3 14,-5 16,-14 24,-32 24,-55l0 -6c0,-3 0,-8 -1,-15 0,-2 1,-5 2,-11l0 -3c-2,-6 -3,-11 -3,-16 -2,-6 -4,-10 -7,-12 -2,-3 -4,-5 -5,-5 0,-5 -10,-8 -30,-10zm9 37c1,2 2,2 2,2 3,3 6,12 8,27 -1,4 -1,6 -1,6 1,8 1,12 1,14 0,15 -3,26 -10,32l0 -1 1 -6 0 -5c0,-4 1,-7 1,-9l0 -1c0,-4 0,-8 -1,-12 0,-9 0,-15 0,-18 0,-4 0,-7 0,-9l0 -2c0,-5 0,-11 -1,-18zm93 -42c0,0 0,0 -1,0l-3 0c-3,0 -5,1 -5,1l-35 4c-7,2 -10,4 -10,6 0,2 1,7 3,14 0,0 0,0 0,1l0 2c0,2 0,5 -1,8 1,1 2,5 2,11 0,5 0,14 -1,28 1,6 1,11 2,15 0,3 0,5 0,7 0,17 1,28 1,35 0,4 0,7 0,9 0,3 0,4 1,4 1,20 2,30 2,30 0,9 1,14 3,17 11,7 21,10 30,10 5,0 9,0 12,-1 18,-6 27,-11 27,-16 0,-2 0,-3 -1,-5 0,-1 -8,-3 -25,-4 -3,0 -5,-4 -6,-13 0,-3 1,-12 2,-27 0,-1 -1,-4 -3,-10 1,-2 1,-4 1,-5 0,-2 0,-6 -1,-10 1,-3 1,-6 1,-9l0 -12c0,-4 0,-12 -2,-22l0 -1 1 0c15,-3 22,-7 22,-13l0 -1c0,-3 -2,-5 -6,-5 -9,1 -15,1 -18,1 -1,0 -2,-2 -3,-5l0 -1 1 -4c-4,-9 -6,-15 -8,-20l0 0 9 0 4 0c0,0 0,0 0,0l1 0c7,-1 12,-3 16,-5 5,-1 7,-4 7,-10 0,-3 -5,-4 -15,-4l-4 0c0,0 0,0 0,0l0 0zm78 5c-12,2 -19,4 -20,6 -1,1 -3,4 -5,8 -7,6 -10,14 -10,22 0,14 2,24 5,29 6,15 11,24 15,28 1,5 2,9 4,12 2,4 4,14 5,29l0 20c0,2 -3,8 -8,15 -3,0 -5,-5 -8,-16 -2,-9 -4,-13 -9,-13l-3 0c-7,0 -11,3 -14,11l0 2c0,10 4,21 12,31 8,7 14,11 20,11l3 0c6,0 12,-2 16,-7l3 0c1,0 3,-1 5,-2 2,-2 5,-4 9,-5 1,-3 3,-7 5,-10 4,-4 6,-9 6,-16 2,-4 2,-7 2,-12l3 -13 0 -1 -2 -10c-3,-19 -7,-32 -12,-38 -15,-17 -23,-30 -23,-39 0,-11 5,-20 13,-28 4,-2 6,-4 6,-7l0 -1c0,-4 -6,-6 -18,-6zm84 15c-1,0 -3,1 -7,3l-4 0c-9,0 -15,3 -17,10 -8,17 -12,27 -12,32 -3,17 -5,28 -5,33 1,2 1,7 1,15 9,45 24,68 44,68l2 0c4,0 9,-1 16,-2 7,-2 11,-5 12,-8 4,-3 7,-7 9,-12 5,-15 8,-31 8,-49 0,-14 -2,-28 -6,-43 0,-7 -1,-12 -2,-15 -3,-5 -5,-10 -6,-14 -3,-12 -13,-18 -30,-18l-3 0zm-1 25c1,0 2,1 3,3 3,12 5,20 7,26 3,11 5,23 6,39 0,0 0,0 0,0l0 1c0,19 -2,32 -6,39 -1,-1 -2,-3 -4,-6 -2,-9 -5,-16 -9,-22 1,0 1,0 1,-1l0 -1c-2,-15 -4,-25 -4,-30 0,-6 1,-12 2,-18 0,-13 1,-24 4,-30zm66 -54c-3,2 -5,3 -5,4 1,4 1,6 1,8l0 3c0,3 -1,7 -1,13 0,1 0,5 0,11 0,1 0,6 -2,15 0,2 1,4 1,6 0,3 -1,4 -1,5l0 8c-1,12 -1,21 -1,26l1 11c0,6 0,16 -1,31l1 3c2,7 6,11 11,11 5,0 12,-1 19,-3 3,0 4,-5 5,-14l0 -3c-3,-20 -5,-30 -6,-30 3,-1 4,-5 4,-11 2,-4 3,-7 3,-11l0 -10 1 -3c0,0 -1,-1 -1,-2 1,-4 1,-8 1,-11l0 -5c0,-2 0,-5 -1,-9 0,-2 0,-6 1,-10l-2 -5c1,-5 2,-9 2,-10l0 -1c0,-1 -1,-4 -2,-7 -1,-6 -7,-10 -18,-10l-10 0zm14 163c-4,0 -12,2 -23,7 -1,0 -3,6 -5,19 0,1 0,3 1,5 0,5 5,8 15,10l3 0c14,-2 20,-5 20,-10 3,-3 4,-5 4,-7 0,-1 0,-2 0,-4 0,-1 1,-3 2,-7 0,-2 0,-3 -1,-3 0,-5 -5,-9 -16,-10z"/>
   <path class="fil1" d="M169 124l-9 0 -18 48c-4,11 -7,19 -9,28l0 0c-3,-9 -6,-18 -10,-29l-17 -47 -8 0 -6 86 7 0 2 -39c1,-14 2,-29 2,-39l0 0c3,9 6,20 11,33l16 45 5 0 17 -46c4,-13 8,-23 11,-32l0 0c0,9 1,25 2,38l2 40 7 0 -5 -86zm67 80l-37 0 0 -37 33 0 0 -5 -33 0 0 -32 35 0 0 -6 -42 0 0 86 44 0 0 -6zm73 -80l-7 0 0 52c0,20 -10,29 -23,29 -12,0 -22,-8 -22,-29l0 -52 -7 0 0 52c0,26 13,35 29,35 16,0 30,-10 30,-36l0 -51zm102 77c-5,2 -12,4 -19,4 -22,0 -34,-15 -34,-38 0,-24 13,-39 35,-39 7,0 13,2 17,4l2 -6c-2,-1 -8,-3 -19,-3 -26,0 -43,18 -43,44 0,30 19,44 40,44 10,0 18,-2 22,-4l-1 -6zm46 -77l-7 0 -30 86 7 0 10 -30 32 0 11 30 7 0 -30 -86zm-18 51l10 -29c2,-5 3,-10 4,-15l1 0c1,5 2,10 4,16l10 28 -29 0zm24 -68c0,4 -1,5 -3,5 -2,0 -4,-1 -6,-2 -3,-2 -5,-3 -8,-3 -5,0 -8,5 -8,12l5 0c0,-4 1,-6 3,-6 2,0 4,1 7,2 2,2 5,3 7,3 5,0 8,-4 8,-11l-5 0zm69 16c-21,0 -37,16 -37,45 0,27 15,43 36,43 20,0 38,-15 38,-45 0,-26 -15,-43 -37,-43zm0 5c20,0 30,21 30,38 0,21 -11,39 -30,39 -20,0 -30,-19 -30,-38 0,-19 9,-39 30,-39zm104 -4l-54 0 0 6 45 0 0 0 -49 75 0 5 58 0 0 -6 -49 0 0 -1 49 -75 0 -4zm15 86l7 0 0 -86 -7 0 0 86zm86 -86l-6 0 0 41c0,13 0,23 1,35l-1 0c-4,-8 -9,-17 -15,-27l-32 -49 -6 0 0 86 6 0 0 -42c0,-15 0,-24 -1,-35l1 0c4,9 10,18 16,28l31 49 6 0 0 -86zm79 0l-7 0 0 37 -45 0 0 -37 -7 0 0 86 7 0 0 -43 45 0 0 43 7 0 0 -86zm53 -1c-22,0 -38,16 -38,45 0,27 16,43 37,43 19,0 37,-15 37,-45 0,-26 -15,-43 -36,-43zm-1 5c21,0 30,21 30,38 0,21 -11,39 -30,39 -19,0 -30,-19 -30,-38 0,-19 9,-39 30,-39zm123 76l-37 0 0 -37 33 0 0 -5 -33 0 0 -32 35 0 0 -6 -42 0 0 86 44 0 0 -6zm54 -77c-3,-2 -9,-4 -17,-4 -15,0 -25,9 -25,21 0,12 8,20 21,24 12,5 17,11 17,20 0,10 -7,17 -20,17 -7,0 -13,-2 -18,-6l-2 6c4,3 12,6 20,6 18,0 27,-11 27,-24 0,-12 -7,-19 -21,-25 -12,-5 -17,-9 -17,-19 0,-6 4,-15 17,-15 8,0 13,3 15,4l3 -5zm68 -3l-60 0 0 6 27 0 0 80 7 0 0 -80 26 0 0 -6zm39 0l-7 0 -30 86 7 0 10 -30 33 0 10 30 7 0 -30 -86zm-18 51l10 -29c2,-5 3,-10 4,-15l1 0c1,5 2,10 4,16l10 28 -29 0zm10 -56l6 0 17 -14 -10 0 -13 14z"/>
   <path class="fil2 str0" d="M84 503c229,-112 906,104 1063,-4"/>
  </g>
  <rect class="fil2" width="1266" height="635"/>
 </g>
</svg>
