<?xml version="1.0" encoding="UTF-8"?>
<!DOCTYPE svg PUBLIC "-//W3C//DTD SVG 1.1//EN" "http://www.w3.org/Graphics/SVG/1.1/DTD/svg11.dtd">
<!-- Creator: CorelDRAW X8 -->
<svg xmlns="http://www.w3.org/2000/svg" xml:space="preserve" width="26.4253mm" height="23.4514mm" version="1.1" style="shape-rendering:geometricPrecision; text-rendering:geometricPrecision; image-rendering:optimizeQuality; fill-rule:evenodd; clip-rule:evenodd"
viewBox="0 0 550 488"
 xmlns:xlink="http://www.w3.org/1999/xlink">
 <defs>
  <style type="text/css">
   <![CDATA[
    .fil0 {fill:none}
    .fil1 {fill:#463B33}
   ]]>
  </style>
 </defs>
 <g id="Camada_x0020_1">
  <metadata id="CorelCorpID_0Corel-Layer"/>
  <rect class="fil0" width="550" height="488"/>
  <g id="_1974543298784">
   <path class="fil1" d="M106 438l345 0c25,0 46,-21 46,-46l0 -296c0,-26 -21,-46 -46,-46l-345 0c-25,0 -46,21 -46,46l0 296c0,25 21,46 46,46zm-23 -342c0,-13 10,-23 23,-23l344 0c13,0 23,10 23,23l0 296c0,12 -10,23 -23,23l-344 0c-12,0 -23,-11 -23,-23l0 -296 0 0z"/>
   <path class="fil1" d="M209 271l-50 -19c-6,-2 -13,0 -15,7 -3,5 0,12 6,15l34 13 -32 18c-6,3 -7,10 -4,16 2,3 6,5 10,5 2,0 4,0 5,-1l32 -18 -5 35c-1,6 3,12 10,13 0,0 1,0 1,0 6,0 11,-4 12,-10l8 -54 46 -27 0 53 -42 34c-6,4 -6,12 -2,16 4,6 12,6 16,2l28 -22 0 36c0,6 6,12 12,12 6,0 11,-6 11,-12l0 -36 28 22c2,2 5,3 8,3 3,0 6,-2 8,-5 5,-5 4,-12 -1,-16l-42 -34 0 -53 46 27 8 54c1,5 6,9 11,9 1,0 1,0 2,0 6,-1 10,-6 10,-13l-5 -35 31 18c2,1 4,2 6,2 4,0 8,-2 10,-6 3,-6 1,-12 -4,-16l-32 -18 33 -13c6,-2 9,-9 7,-15 -2,-6 -9,-9 -15,-7l-51 20 -47 -27 46 -27 51 19c1,1 2,1 4,1 5,0 9,-3 11,-7 2,-6 -1,-13 -7,-16l-33 -13 32 -18c5,-3 7,-10 4,-15 -3,-6 -11,-8 -16,-5l-32 19 6 -35c1,-6 -4,-12 -10,-13 -6,-1 -12,3 -13,10l-8 53 -46 27 0 -53 42 -34c5,-4 6,-12 1,-16 -4,-5 -11,-6 -16,-2l-28 23 0 -37c0,-6 -5,-11 -11,-11 -7,0 -12,5 -12,11l0 37 -28 -23c-5,-4 -12,-3 -16,2 -4,5 -3,12 2,16l42 34 0 53 -45 -27 -8 -53c-1,-7 -7,-11 -13,-10 -7,1 -11,7 -10,13l5 35 -31 -18c-6,-3 -13,-2 -16,4 -3,6 -1,13 4,16l32 18 -33 13c-6,2 -9,9 -7,15 2,5 6,7 11,7 2,0 3,0 4,0l51 -19 46 27 -47 26z"/>
  </g>
 </g>
</svg>
