<?xml version="1.0" encoding="UTF-8"?>
<!DOCTYPE svg PUBLIC "-//W3C//DTD SVG 1.1//EN" "http://www.w3.org/Graphics/SVG/1.1/DTD/svg11.dtd">
<!-- Creator: CorelDRAW X8 -->
<svg xmlns="http://www.w3.org/2000/svg" xml:space="preserve" width="26.4253mm" height="23.4514mm" version="1.1" style="shape-rendering:geometricPrecision; text-rendering:geometricPrecision; image-rendering:optimizeQuality; fill-rule:evenodd; clip-rule:evenodd"
viewBox="0 0 378 335"
 xmlns:xlink="http://www.w3.org/1999/xlink">
 <defs>
  <style type="text/css">
   <![CDATA[
    .fil0 {fill:none}
    .fil1 {fill:#463B33}
   ]]>
  </style>
 </defs>
 <g id="Camada_x0020_1">
  <metadata id="CorelCorpID_0Corel-Layer"/>
  <rect class="fil0" width="378" height="335"/>
  <path class="fil1" d="M70 301l237 0c18,0 32,-15 32,-32l0 -203c0,-18 -15,-32 -32,-32l-237 0c-17,0 -31,15 -31,32l0 203c0,17 14,32 31,32zm-16 -235c0,-9 7,-16 16,-16l237 0c8,0 15,7 15,16l0 203c0,9 -7,16 -15,16l-237 0c-8,0 -15,-7 -15,-16l0 -203 -1 0z"/>
  <path class="fil1" d="M99 94l111 0 0 63 78 0c2,3 5,7 8,10 4,6 5,4 5,14 0,11 1,27 0,37l-20 0c-5,-11 -6,-17 -17,-22 -15,-6 -33,2 -38,16 -2,7 2,6 -14,6 -12,0 -27,1 -39,0 -4,-14 -12,-24 -28,-24 -17,0 -24,10 -28,24l-18 0 0 10 18 0c5,31 51,31 56,0l50 0c3,2 4,8 6,11 2,3 5,7 9,9 8,4 18,5 27,1 4,-2 6,-5 9,-7 13,-15 -3,-14 20,-14 5,0 12,0 17,0l0 -54c0,-5 -1,-5 -3,-8 -20,-26 -10,-12 -24,-40 -3,-5 -12,-27 -15,-29l-49 0 0 -13 -121 0 0 10zm-19 84c-2,2 -1,8 -1,11l42 0c0,-4 0,-8 0,-11 -1,0 -1,0 -1,0l-40 0zm58 -21c1,-2 1,-2 1,-4 0,-2 0,-4 0,-6 -18,-1 -44,0 -64,0l-6 -1c-2,1 -2,0 -3,1l0 10 72 0zm-59 -31l3 0 1 0 67 0 2 0 0 -10 -73 0 0 10zm62 79c-25,6 -14,41 8,36 9,-3 16,-11 14,-23 -2,-8 -11,-16 -22,-13zm109 0c-25,3 -18,40 5,36 24,-4 19,-40 -5,-36zm-30 -58l62 0c-2,-7 -10,-23 -14,-30 -1,-3 -3,-9 -6,-10l-42 0 0 40z"/>
 </g>
</svg>
