<?xml version="1.0" encoding="UTF-8"?>
<!DOCTYPE svg PUBLIC "-//W3C//DTD SVG 1.1//EN" "http://www.w3.org/Graphics/SVG/1.1/DTD/svg11.dtd">
<!-- Creator: CorelDRAW X8 -->
<svg xmlns="http://www.w3.org/2000/svg" xml:space="preserve" width="26.4253mm" height="23.4514mm" version="1.1" style="shape-rendering:geometricPrecision; text-rendering:geometricPrecision; image-rendering:optimizeQuality; fill-rule:evenodd; clip-rule:evenodd"
viewBox="0 0 375 332"
 xmlns:xlink="http://www.w3.org/1999/xlink">
 <defs>
  <style type="text/css">
   <![CDATA[
    .str0 {stroke:#463B33;stroke-width:7.08676;stroke-linecap:round;stroke-linejoin:round}
    .fil0 {fill:none}
    .fil2 {fill:black}
    .fil1 {fill:#463B33}
   ]]>
  </style>
 </defs>
 <g id="Camada_x0020_1">
  <metadata id="CorelCorpID_0Corel-Layer"/>
  <rect class="fil0" width="375" height="332"/>
  <path class="fil1" d="M67 296l235 0c17,0 31,-15 31,-32l0 -202c0,-17 -14,-31 -31,-31l-235 0c-17,0 -31,14 -31,31l0 202c0,17 14,32 31,32zm-16 -234c0,-8 7,-15 16,-15l235 0c8,0 15,7 15,15l0 202c0,9 -7,16 -15,16l-235 0c-8,0 -15,-7 -15,-16l0 -202 -1 0z"/>
  <path class="fil0 str0" d="M134 102l-17 43c0,0 -14,27 11,37"/>
  <path class="fil0 str0" d="M213 134l-17 43c0,0 -10,29 -35,19"/>
  <line class="fil0 str0" x1="134" y1="102" x2="146" y2= "130" />
  <line class="fil0 str0" x1="146" y1="130" x2="174" y2= "118" />
  <line class="fil0 str0" x1="174" y1="118" x2="185" y2= "146" />
  <line class="fil0 str0" x1="185" y1="146" x2="213" y2= "134" />
  <line class="fil0 str0" x1="140" y1="116" x2="155" y2= "110" />
  <line class="fil0 str0" x1="160" y1="124" x2="154" y2= "110" />
  <line class="fil0 str0" x1="136" y1="107" x2="159" y2= "97" />
  <line class="fil0 str0" x1="159" y1="97" x2="169" y2= "120" />
  <line class="fil0 str0" x1="166" y1="109" x2="180" y2= "103" />
  <line class="fil0 str0" x1="186" y1="117" x2="180" y2= "103" />
  <line class="fil0 str0" x1="162" y1="100" x2="185" y2= "91" />
  <line class="fil0 str0" x1="185" y1="91" x2="195" y2= "113" />
  <line class="fil0 str0" x1="180" y1="132" x2="194" y2= "126" />
  <line class="fil0 str0" x1="200" y1="140" x2="194" y2= "126" />
  <line class="fil0 str0" x1="176" y1="123" x2="199" y2= "113" />
  <line class="fil0 str0" x1="199" y1="113" x2="208" y2= "136" />
  <line class="fil0 str0" x1="128" y1="182" x2="160" y2= "195" />
  <line class="fil0 str0" x1="146" y1="130" x2="135" y2= "157" />
  <line class="fil0 str0" x1="185" y1="146" x2="174" y2= "174" />
  <path class="fil0 str0" d="M241 150c0,0 1,0 0,0 -5,-9 -43,-5 -43,31"/>
  <path class="fil0 str0" d="M266 150c0,-1 -1,0 0,0 5,-9 39,-5 39,31"/>
  <path class="fil0 str0" d="M205 208c-4,-8 -7,-17 -7,-26 0,-4 1,-9 2,-13"/>
  <path class="fil0 str0" d="M206 211c0,-1 -1,-2 -1,-3"/>
  <path class="fil0 str0" d="M257 236c-1,0 -3,0 -5,0 -2,0 -7,0 -8,0"/>
  <path class="fil0 str0" d="M303 165c1,6 2,11 2,17 0,28 -21,51 -48,54"/>
  <path class="fil0 str0" d="M247 148c0,0 -21,6 -23,15 0,0 25,-7 25,-3 0,4 4,11 4,11"/>
  <path class="fil0 str0" d="M259 148c0,0 22,6 24,15 0,0 -25,-7 -25,-3 0,4 -5,11 -5,11"/>
  <line class="fil0 str0" x1="248" y1="148" x2="248" y2= "141" />
  <line class="fil0 str0" x1="259" y1="148" x2="259" y2= "141" />
  <line class="fil0 str0" x1="259" y1="141" x2="248" y2= "141" />
  <g>
   <path class="fil2" d="M286 209c-5,8 -12,13 -20,15l20 -15zm0 0l0 0 0 0z"/>
   <path id="1" class="fil0 str0" d="M286 209c-5,8 -12,13 -20,15m20 -15l0 0 0 0z"/>
  </g>
  <path class="fil0 str0" d="M209 212l43 14c0,0 4,3 4,6"/>
  <path class="fil0 str0" d="M122 194c2,-11 16,-5 16,-5l17 6 14 4 40 13"/>
  <path class="fil0 str0" d="M117 226c-2,12 14,10 14,10l120 0c0,0 4,-1 5,-4"/>
  <polyline class="fil0 str0" points="117,226 122,194 123,190 "/>
  <polyline class="fil0 str0" points="155,195 155,195 153,207 "/>
  <polyline class="fil0 str0" points="169,199 169,199 168,209 "/>
  <line class="fil0 str0" x1="184" y1="206" x2="183" y2= "212" />
  <path class="fil0 str0" d="M117 209c-5,1 -20,5 -19,23"/>
  <path class="fil0 str0" d="M118 209c0,0 0,0 -1,0"/>
  <path class="fil0 str0" d="M118 209c0,0 0,0 0,0 0,2 0,21 -19,23"/>
  <path class="fil0 str0" d="M119 208c0,0 -6,-50 -55,-46"/>
  <path class="fil0 str0" d="M119 209c0,0 0,0 -1,0 0,0 0,0 -1,0 0,0 0,0 0,0 -9,0 -49,-3 -53,-46"/>
 </g>
</svg>
