<?xml version="1.0" encoding="UTF-8"?>
<!DOCTYPE svg PUBLIC "-//W3C//DTD SVG 1.1//EN" "http://www.w3.org/Graphics/SVG/1.1/DTD/svg11.dtd">
<!-- Creator: CorelDRAW X8 -->
<svg xmlns="http://www.w3.org/2000/svg" xml:space="preserve" width="26.4253mm" height="23.4514mm" version="1.1" style="shape-rendering:geometricPrecision; text-rendering:geometricPrecision; image-rendering:optimizeQuality; fill-rule:evenodd; clip-rule:evenodd"
viewBox="0 0 181 160"
 xmlns:xlink="http://www.w3.org/1999/xlink">
 <defs>
  <style type="text/css">
   <![CDATA[
    .fil0 {fill:none}
    .fil1 {fill:#463B33}
   ]]>
  </style>
   <clipPath id="id0">
    <path d="M24 22l134 0 0 116 -134 0 0 -116z"/>
   </clipPath>
 </defs>
 <g id="Camada_x0020_1">
  <metadata id="CorelCorpID_0Corel-Layer"/>
  <rect class="fil0" width="181" height="160"/>
  <g>
  </g>
  <g style="clip-path:url(#id0)">
   <g>
    <g id="_1974882300832">
     <path class="fil1" d="M89 163c-1,5 2,8 6,9 4,0 8,-3 9,-7l4 -34 -15 0 -4 32z"/>
     <path class="fil1" d="M139 71c-2,-4 -5,-6 -8,-8 -2,-2 -4,-3 -4,-3 -1,0 -2,0 -3,0l-22 0c-1,0 -1,0 -2,0 0,0 0,0 0,0l0 0c-1,0 -14,3 -25,17 0,0 0,0 0,0l0 0c-3,3 -5,7 -8,12 -1,2 0,5 3,6 0,0 1,1 2,1 2,0 3,-1 4,-3 2,-4 4,-8 6,-10l0 0c3,-4 7,-7 10,-9 0,-2 0,-4 3,-6 1,0 2,-1 4,-1 1,0 2,1 2,1 0,1 0,1 -1,2 -2,2 0,4 0,4 0,1 0,1 0,1 1,0 2,2 4,3 1,0 1,0 1,0 3,1 8,1 8,4 0,3 0,4 -1,6 -1,1 -4,1 -6,2 -1,0 -2,0 -3,0 0,0 -3,3 -5,6l0 1c0,0 0,0 -1,1 0,0 0,0 0,0 0,0 0,0 0,0l1 21c0,1 -1,2 -1,3l12 0 2 -12 4 0 2 12 10 0c2,0 4,1 4,3l0 3c0,2 -2,3 -4,3l-3 0 0 38c2,2 4,3 7,3 4,-1 7,-4 6,-9l-8 -60 0 -5c-1,1 -3,2 -4,2 -1,1 -2,1 -3,1 -2,0 -4,-1 -5,-3 -1,-2 -1,-4 -1,-5 1,-2 2,-3 4,-4 5,-2 8,-4 9,-6l0 -9c1,1 2,1 2,2 1,2 2,3 2,3 0,1 0,1 -1,2 0,0 0,1 -1,2 0,0 0,0 0,0 -2,2 -5,5 -11,8 -2,1 -3,4 -2,6 1,2 2,3 4,3 1,0 1,0 2,-1 7,-3 11,-6 14,-10 0,0 0,0 0,0 1,-1 2,-2 3,-3 1,-2 1,-4 1,-7 0,-3 -1,-6 -3,-8z"/>
     <path class="fil1" d="M97 95c2,-2 5,-6 6,-6 3,-1 7,0 8,-2 1,-2 1,-2 1,-5 0,-2 -6,-3 -8,-3 -3,-1 -5,-4 -5,-4 0,0 -2,-2 1,-6 1,-1 -2,-1 -4,0 -3,2 -3,4 -3,7 -4,2 -6,7 -6,10 3,5 7,8 10,9zm2 -16c1,0 2,1 2,2 1,1 0,2 -1,2 -1,0 -2,-1 -2,-2 -1,-1 0,-2 1,-2z"/>
     <path class="fil1" d="M57 122c5,0 4,-17 7,-19 0,0 13,8 20,7 1,0 2,-1 4,-1l2 11c1,1 1,1 2,2l3 0c1,-1 1,-2 1,-3l0 -21c0,0 0,0 0,-1 -3,-1 -7,-4 -11,-8 -2,0 -4,1 -6,0 0,2 -1,3 -2,4 -1,2 -3,4 -5,4 -1,0 -2,0 -3,-1 -1,0 -2,-2 -3,-3 0,-2 0,-3 0,-5 1,0 1,-1 1,-2 -2,0 -4,0 -7,2 -5,-1 -10,-4 -14,-10 -1,-1 -2,-1 -3,0 -2,0 -2,2 -1,3 4,6 8,9 13,11 0,0 -1,0 -1,0 -1,2 -2,4 -2,7 0,0 -1,23 5,23z"/>
     <path class="fil1" d="M127 130c1,0 2,-1 2,-2l0 -3c0,-1 -1,-2 -2,-2l-89 0c-1,0 -2,1 -2,2l0 3c0,1 1,2 2,2l4 0 0 42 6 0 0 -42 69 0 0 42 6 0 0 -42 4 0z"/>
     <path class="fil1" d="M127 37c0,-1 0,-2 0,-2 0,-4 -2,-6 -5,-6 -2,0 -3,0 -4,1 -2,0 -3,-1 -5,-1 -4,0 -9,3 -11,6l14 0c0,1 1,3 1,4l-17 0c0,1 0,2 0,4 0,7 6,13 13,13 8,0 14,-6 14,-13 0,-2 -1,-3 -1,-4l0 0c0,-1 1,-2 1,-2zm-10 -2c0,-3 2,-5 5,-5 2,0 4,2 4,5 0,2 -2,4 -4,4 -3,0 -5,-2 -5,-4z"/>
    </g>
   </g>
  </g>
  <polygon class="fil0" points="24,22 158,22 158,138 24,138 "/>
  <path class="fil1" d="M33 145l115 0c8,0 15,-7 15,-15l0 -99c0,-9 -7,-15 -15,-15l-115 0c-9,0 -15,6 -15,15l0 98c0,9 6,16 15,16zm-8 -114c0,-4 4,-8 8,-8l115 0c4,0 7,4 7,8l0 98c0,5 -3,8 -7,8l-115 0c-4,0 -8,-3 -8,-8l0 -98 0 0z"/>
 </g>
</svg>
