<?xml version="1.0" encoding="UTF-8"?>
<!DOCTYPE svg PUBLIC "-//W3C//DTD SVG 1.1//EN" "http://www.w3.org/Graphics/SVG/1.1/DTD/svg11.dtd">
<!-- Creator: CorelDRAW X8 -->
<svg xmlns="http://www.w3.org/2000/svg" xml:space="preserve" class="icon" version="1.1" style="shape-rendering:geometricPrecision; text-rendering:geometricPrecision; image-rendering:optimizeQuality; fill-rule:evenodd; clip-rule:evenodd"
viewBox="0 0 792 398"
 xmlns:xlink="http://www.w3.org/1999/xlink">
 <defs>
  <style type="text/css">
   <![CDATA[
    .str0 {stroke:#4A4037;stroke-width:14.352}
    .fil2 {fill:none}
    .fil0 {fill:#F48884;fill-rule:nonzero}
    .fil1 {fill:#4A4037;fill-rule:nonzero}
   ]]>
  </style>
 </defs>
 <g id="Camada_x0020_1">
  <metadata id="CorelCorpID_0Corel-Layer"/>
  <g id="_1974878835872">
   <path class="fil0" d="M156 155c-6,1 -10,2 -11,3 0,1 -1,2 -2,4 -4,4 -6,8 -6,12 1,7 2,12 3,16 3,7 6,12 8,14 1,3 1,5 2,6 1,3 2,8 3,16l0 10c0,1 -2,4 -5,8 -1,0 -2,-3 -4,-8 0,-5 -2,-7 -4,-7l-2 0c-3,0 -6,1 -7,5l0 1c0,6 2,12 6,17 4,4 8,6 11,6l1 0c4,0 6,-2 8,-4l2 0c1,0 2,0 3,-1 1,-1 2,-2 5,-3 0,-1 1,-3 2,-5 2,-2 3,-5 3,-9 1,-1 2,-3 2,-6l1 -6 0 -1 -1 -5c-2,-10 -4,-17 -6,-20 -8,-9 -12,-16 -12,-21 0,-6 2,-11 6,-14 3,-1 4,-3 4,-4l0 -1c0,-2 -4,-3 -10,-3zm49 -3c0,1 0,1 0,1l-2 0c-2,0 -3,0 -3,0l-18 2c-4,1 -5,2 -5,3 0,2 0,4 1,8 0,0 0,0 0,0l0 1c0,1 0,3 0,5 0,0 1,2 1,5 0,3 0,8 -1,15 1,3 1,5 2,8 0,1 -1,3 -1,4 0,8 1,14 1,18 0,2 0,4 0,5 0,1 0,2 0,2 1,10 1,16 2,16 0,4 0,7 1,9 6,3 11,5 16,5 2,0 5,0 6,-1 10,-3 15,-6 15,-8 0,-1 -1,-2 -1,-3 0,-1 -5,-1 -13,-2 -2,0 -3,-2 -3,-6 0,-2 0,-7 1,-15 0,0 -1,-2 -2,-5 0,-1 0,-2 0,-3 0,-1 0,-3 0,-5 1,-2 1,-4 1,-5l0 -6c0,-2 -1,-6 -2,-12l0 0 1 0c8,-2 12,-4 12,-7l0 -1c0,-1 -2,-2 -4,-2 -4,0 -7,0 -9,0 -1,0 -1,-1 -1,-2l0 -1 0 -2c-2,-5 -3,-8 -4,-10l0 -1 5 0 1 1c0,-1 1,-1 1,-1l0 1c3,-1 6,-2 9,-3 2,-1 3,-2 3,-5 0,-2 -3,-3 -8,-3l-2 1c0,-1 0,-1 0,-1l0 0zm64 4c-1,0 -2,0 -4,0 -4,0 -6,2 -6,4l0 3c-2,19 -4,31 -6,36l0 0c0,-2 -1,-4 -1,-5 -3,-10 -4,-15 -4,-18 -1,-3 -3,-6 -6,-10 -1,-3 -2,-5 -2,-5 -3,-2 -5,-3 -6,-3l-5 0c-3,0 -5,2 -7,6 0,3 1,6 1,7 0,2 -1,5 -1,9 0,2 0,5 0,7l0 5c0,0 0,3 0,8l0 4c0,0 0,3 0,8l0 7c0,5 1,11 2,18 0,6 2,11 4,15 3,2 6,4 9,4 5,-1 7,-2 7,-2 3,0 5,-2 6,-6 0,-2 0,-4 -1,-7 -1,-9 -2,-14 -2,-15 0,-2 0,-5 0,-8l-1 -2c2,1 5,1 10,1l3 -1c4,-2 6,-8 6,-16l1 0 0 5c0,2 -1,5 -1,9l0 4c0,5 -1,14 -2,26 0,3 0,5 1,8 2,2 5,4 8,4 1,0 2,0 3,-1 4,-1 6,-5 6,-12 0,-2 0,-5 -1,-8 2,-5 3,-8 3,-10l0 -1c0,-4 -1,-11 -4,-22l0 -2c0,-3 1,-5 1,-6 0,-1 0,-2 -1,-3 1,-3 1,-4 1,-6 0,-4 -1,-6 -1,-7l0 -5c0,-2 0,-3 -1,-4 -1,-5 -2,-8 -3,-9 -1,-2 -3,-3 -6,-4zm71 -5c-4,1 -6,1 -7,2 -2,3 -3,8 -5,16 0,6 -1,9 -1,11 -2,14 -3,22 -4,25 0,9 -1,13 -1,13 0,8 -1,16 -2,23 1,0 1,1 1,1 0,1 -1,5 -1,12 0,4 2,6 6,6 0,0 0,0 0,0l0 0c1,0 2,0 5,-1 2,0 3,-3 3,-10 0,-3 1,-10 2,-20 4,1 7,2 9,2 1,14 4,21 6,21 1,0 2,-1 3,-1l2 0c1,0 2,0 3,-1 2,0 4,-1 5,-2 1,-2 1,-5 1,-10l0 -1 -2 -11c-2,-9 -2,-15 -2,-17 0,-2 -2,-7 -5,-18 0,-9 -1,-16 -4,-20 -1,-5 -1,-7 -2,-8 -3,-8 -6,-12 -10,-12l0 0zm0 39c1,6 1,9 1,11 2,11 3,17 3,18l0 0 -2 0c-2,0 -3,1 -5,1l0 0c0,-2 0,-5 2,-10 0,-8 0,-15 1,-20l0 0zm41 -35c-4,1 -7,1 -8,2 -3,3 -5,5 -5,7 0,1 0,2 1,3 0,2 -1,5 -1,8l0 4c0,6 -1,10 -1,12 1,8 1,16 1,22 0,4 0,6 0,6 0,0 0,1 0,1 0,0 0,1 0,2l0 2c0,2 0,4 0,5 0,1 0,3 0,4 0,1 0,2 0,5 0,1 0,5 -1,12 1,3 1,4 2,6 1,1 4,2 9,2l2 0c3,-3 5,-5 5,-7l-1 -2c1,-1 1,-3 1,-5l0 0c0,-4 0,-7 0,-7l0 -1c0,0 0,0 0,0l0 0c0,-1 0,-3 -1,-8l0 0c0,-1 3,-2 7,-3 9,-7 14,-17 14,-29l0 -3c0,-2 -1,-4 -1,-8 0,-1 0,-3 1,-6l0 -1c-1,-3 -2,-6 -2,-9 -1,-3 -2,-5 -3,-6 -2,-2 -3,-3 -3,-3 0,-2 -5,-4 -16,-5zm5 20c0,0 1,1 1,1 2,1 3,6 4,14 0,2 0,3 0,3 0,4 0,6 0,7 0,8 -2,14 -5,17l0 0 0 -4 0 -2c1,-2 1,-4 1,-5l0 0c0,-2 0,-5 -1,-7 1,-4 1,-8 1,-9 0,-2 -1,-4 -1,-5l0 -1c0,-3 0,-6 0,-9zm49 -23c0,1 0,1 -1,1l-1 0c-2,0 -3,0 -3,0l-18 2c-4,1 -6,2 -6,3 0,2 1,4 2,8 0,0 0,0 0,0l0 1c0,1 0,3 0,5 0,0 0,2 0,5 0,3 0,8 0,15 0,3 1,5 1,8 0,1 0,3 0,4 0,8 0,14 1,18 0,2 -1,4 -1,5 0,1 1,2 1,2 1,10 1,16 1,16 0,4 1,7 2,9 5,3 10,5 16,5 2,0 4,0 6,-1 9,-3 14,-6 14,-8 0,-1 0,-2 -1,-3 0,-1 -4,-1 -13,-2 -1,0 -2,-2 -3,-6 0,-2 1,-7 1,-15 0,0 0,-2 -1,-5 0,-1 0,-2 0,-3 0,-1 0,-3 0,-5 0,-2 0,-4 0,-5l0 -6c0,-2 0,-6 -1,-12l0 0 1 0c7,-2 11,-4 11,-7l0 -1c0,-1 -1,-2 -3,-2 -5,0 -8,0 -9,0 -1,0 -2,-1 -2,-2l0 -1 0 -2c-1,-5 -3,-8 -3,-10l0 -1 4 0 2 1c0,-1 0,-1 0,-1l1 1c3,-1 6,-2 8,-3 3,-1 4,-2 4,-5 0,-2 -3,-3 -8,-3l-2 1c0,-1 0,-1 0,-1l0 0zm39 0c-10,0 -14,0 -14,1 -7,1 -10,2 -10,4l0 0c0,3 4,5 11,6l-2 20 1 2c-1,5 -1,11 -1,17l0 9c0,0 0,0 0,1 0,0 0,0 0,0l0 3 1 2c-1,0 -1,0 -1,0 1,0 1,1 1,3 0,4 -1,9 -1,17 0,1 0,5 1,13l-1 3c1,2 1,3 1,4 0,1 3,2 9,2l2 0c0,0 1,0 1,0 2,0 4,-2 4,-7 0,-1 -1,-2 -1,-4 0,-7 1,-11 1,-13 0,-4 0,-7 0,-8l1 -12c2,-3 2,-4 2,-5l0 -2c0,0 0,0 0,-1 0,0 0,0 0,0l0 -1c0,-1 1,-3 2,-5 0,-6 0,-9 1,-9 0,-12 -1,-19 -1,-22 0,0 0,0 0,-1 0,0 0,0 0,-1 0,0 0,-1 0,-3l2 1 3 0c9,-2 13,-4 13,-6 0,-2 0,-2 0,-2 0,-2 -5,-4 -13,-5 -1,0 -2,0 -3,0 -1,0 -4,0 -9,-1l0 0zm30 4c-3,2 -5,3 -5,5l0 2c0,7 0,13 -1,19 0,7 0,11 0,13 0,1 0,2 0,3 0,3 1,8 1,16 0,6 -1,10 -1,13 0,0 1,2 1,6l0 11c0,4 1,8 2,10 0,3 2,4 7,4 5,-1 7,-1 8,-1 3,0 4,-1 5,-3l0 -1c0,-1 0,-3 -1,-6 0,-2 0,-4 0,-5 0,-1 0,-3 -1,-4 0,-2 1,-4 1,-6l0 -1c-1,-8 -2,-13 -2,-15l0 -1c0,-5 0,-8 0,-10 0,-2 0,-4 0,-8l0 -4 0 -3c0,-1 0,-2 0,-3 0,-1 0,-4 0,-8 0,-2 0,-4 0,-5 0,-3 0,-6 -2,-9l0 -3c0,0 0,-1 0,-2 -2,-2 -5,-4 -9,-4l-3 0zm42 -4c-9,0 -14,0 -14,1 -6,1 -10,2 -10,4l0 0c0,3 4,5 11,6l-1 20 0 2c-1,5 -1,11 -1,17l1 9c-1,0 -1,0 -1,1 0,0 1,0 1,0l0 3 0 2c0,0 0,0 0,0 0,0 0,1 0,3 0,4 -1,9 -1,17 0,1 0,5 1,13l0 3c0,2 0,3 0,4 0,1 3,2 9,2l2 0c0,0 1,0 1,0 3,0 4,-2 4,-7 0,-1 0,-2 -1,-4 1,-7 1,-11 1,-13 0,-4 0,-7 0,-8l1 -12c2,-3 3,-4 3,-5l-1 -2c0,0 1,0 1,-1 -1,0 -1,0 -1,0l0 -1c0,-1 1,-3 2,-5 0,-6 1,-9 1,-9 0,-12 -1,-19 -1,-22 0,0 0,0 0,-1 0,0 0,0 0,-1 0,0 0,-1 0,-3l2 1 3 0c9,-2 13,-4 13,-6 0,-2 0,-2 0,-2 0,-2 -5,-4 -13,-5 -1,0 -2,0 -3,0 -1,0 -4,0 -9,-1l0 0zm52 0c0,1 0,1 0,1l-2 0c-2,0 -3,0 -3,0l-18 2c-4,1 -6,2 -6,3 0,2 1,4 2,8 0,0 0,0 0,0l0 1c0,1 0,3 0,5 0,0 0,2 1,5 0,3 0,8 -1,15 1,3 1,5 1,8 0,1 0,3 0,4 0,8 1,14 1,18 0,2 0,4 0,5 0,1 0,2 0,2 1,10 1,16 2,16 0,4 0,7 1,9 5,3 11,5 16,5 2,0 4,0 6,-1 10,-3 14,-6 14,-8 0,-1 0,-2 0,-3 0,-1 -5,-1 -14,-2 -1,0 -2,-2 -2,-6 0,-2 0,-7 1,-15 0,0 -1,-2 -2,-5 0,-1 0,-2 0,-3 0,-1 0,-3 0,-5 0,-2 1,-4 1,-5l0 -6c0,-2 -1,-6 -2,-12l0 0 1 0c7,-2 11,-4 11,-7l0 -1c0,-1 -1,-2 -3,-2 -4,0 -8,0 -9,0 -1,0 -1,-1 -2,-2l0 -1 1 -2c-2,-5 -4,-8 -4,-10l0 -1 4 0 2 1c0,-1 0,-1 1,-1l0 1c3,-1 6,-2 9,-3 2,-1 3,-2 3,-5 0,-2 -3,-3 -8,-3l-2 1c0,-1 0,-1 0,-1l0 0zm24 -4c-2,1 -3,1 -3,2 0,2 0,3 0,4l0 2c0,1 0,4 0,6 0,1 0,3 0,6 0,1 0,4 -1,8 0,1 0,2 0,4 0,1 0,1 0,2l0 4c-1,7 -1,11 -1,14l1 6c0,3 0,8 -1,16l1 2c1,3 3,5 6,5 2,0 6,0 10,-2 1,0 2,-2 2,-7l0 -1c-1,-11 -2,-16 -3,-16 1,-1 2,-3 2,-6 1,-2 2,-4 2,-6l0 -5 0 -1c0,0 0,-1 0,-2 0,-2 0,-4 0,-5l0 -3c0,-1 0,-3 0,-5 0,-1 0,-3 0,-5l-1 -2c1,-3 1,-5 1,-6l0 0c0,-1 0,-2 -1,-4 0,-3 -4,-5 -9,-5l-5 0zm7 86c-2,0 -6,1 -12,3 -1,0 -2,3 -3,10 0,1 0,2 1,3 0,3 2,4 7,5l2 0c7,-1 11,-3 11,-5 1,-2 2,-3 2,-4 0,0 0,-1 0,-2 0,0 0,-2 1,-4 0,-1 0,-1 -1,-1 0,-3 -2,-5 -8,-5z"/>
   <path class="fil1" d="M197 124l-24 0 0 -23 21 0 0 -3 -21 0 0 -20 22 0 0 -4 -26 0 0 54 28 0 0 -4zm33 -48c-2,-2 -5,-3 -10,-3 -10,0 -16,6 -16,14 0,7 5,12 13,15 8,3 11,6 11,12 0,6 -5,11 -12,11 -5,0 -9,-2 -12,-4l-1 4c2,2 8,3 12,3 11,0 17,-6 17,-14 0,-8 -4,-13 -13,-16 -7,-3 -11,-6 -11,-12 0,-4 3,-9 11,-9 5,0 8,1 10,2l1 -3zm43 -2l-38 0 0 4 17 0 0 50 5 0 0 -50 16 0 0 -4zm24 0l-4 0 -19 54 5 0 6 -19 20 0 7 19 4 0 -19 -54zm-11 32l6 -18c1,-3 2,-6 3,-10l0 0c1,4 2,7 3,10l6 18 -18 0zm7 -35l3 0 11 -9 -7 0 -7 9zm90 5c-2,-2 -6,-3 -11,-3 -9,0 -16,6 -16,14 0,7 6,12 14,15 8,3 10,6 10,12 0,6 -4,11 -12,11 -4,0 -8,-2 -11,-4l-2 4c3,2 8,3 13,3 11,0 17,-6 17,-14 0,-8 -5,-13 -13,-16 -8,-3 -11,-6 -11,-12 0,-4 3,-9 11,-9 4,0 8,1 9,2l2 -3zm39 48l-23 0 0 -23 21 0 0 -3 -21 0 0 -20 22 0 0 -4 -26 0 0 54 27 0 0 -4zm56 -50l-5 0 -11 30c-3,7 -5,12 -6,17l-1 0c-1,-5 -3,-10 -5,-17l-11 -30 -5 0 -4 54 4 0 2 -25c0,-9 1,-18 1,-24l0 0c2,6 4,12 7,21l10 28 3 0 11 -29c2,-8 5,-14 7,-20l0 0c0,6 0,16 1,24l1 25 5 0 -4 -54zm15 54l4 0 0 -23c2,0 4,0 6,0 9,0 19,-3 19,-16 0,-5 -2,-15 -18,-15 -5,0 -8,0 -11,1l0 53zm4 -50c1,-1 4,-1 7,-1 8,0 14,4 14,12 0,8 -6,13 -15,13 -2,0 -4,0 -6,-1l0 -23zm55 24c6,-3 10,-7 10,-14 0,-4 -2,-8 -4,-10 -3,-3 -7,-4 -14,-4 -4,0 -9,0 -12,1l0 53 4 0 0 -25 8 0c7,0 10,4 12,11 1,7 2,12 3,14l5 0c-1,-3 -2,-7 -4,-15 -2,-6 -4,-10 -8,-11l0 0zm-16 -2l0 -22c2,-1 4,-1 8,-1 6,0 13,2 13,11 0,7 -5,12 -13,12l-8 0zm64 24l-24 0 0 -23 21 0 0 -3 -21 0 0 -20 22 0 0 -4 -26 0 0 54 28 0 0 -4z"/>
   <path class="fil2 str0" d="M673 266c-92,134 -414,33 -554,33"/>
  </g>
  <rect class="fil2" width="792" height="398"/>
 </g>
</svg>
